{"glyphs":{"0":{"ha":719,"x_min":15,"x_max":696,"o":"m 654 317 q 591 180 639 243 q 480 78 543 117 q 344 25 417 39 q 207 26 271 11 q 92 97 143 42 q 24 240 42 151 q 31 410 17 317 q 63 562 46 504 q 115 725 81 619 q 234 874 153 811 q 409 949 315 936 q 592 901 503 961 q 644 837 622 874 q 677 766 665 800 q 692 684 689 732 q 695 601 696 636 q 688 513 694 567 q 676 431 681 460 q 660 350 671 403 q 654 317 656 328 m 364 175 q 483 335 435 185 q 517 644 533 493 q 419 799 500 793 q 399 797 410 799 q 264 635 308 782 q 219 447 222 460 q 314 167 167 163 q 364 175 336 168 z "},"1":{"ha":426,"x_min":19,"x_max":365,"o":"m 203 140 q 193 83 199 99 q 154 22 181 44 q 110 -6 128 -1 q 85 -8 93 -10 q 35 44 49 -1 q 35 142 21 89 q 62 355 50 272 q 96 551 74 438 q 146 760 118 665 q 69 751 107 736 q 30 797 32 765 q 67 860 28 828 q 233 944 178 915 q 289 954 257 953 q 343 936 321 956 q 351 883 365 917 q 294 693 319 801 q 258 527 268 585 q 227 318 247 469 q 203 140 207 167 z "},"2":{"ha":789,"x_min":36,"x_max":779,"o":"m 228 765 q 338 865 269 821 q 477 930 406 908 q 619 938 549 951 q 732 871 690 925 q 772 784 764 833 q 764 688 779 735 q 681 539 740 617 q 563 406 621 461 q 424 278 506 351 q 304 165 342 204 q 385 168 326 163 q 499 177 443 174 q 610 177 554 181 q 701 149 667 174 q 735 79 735 125 q 442 10 735 13 q 356 10 421 11 q 110 35 167 6 q 96 167 38 71 q 194 269 108 183 q 368 444 279 354 q 529 624 457 533 q 599 750 601 715 q 557 795 590 782 q 490 799 524 808 q 460 788 475 796 q 433 774 444 781 q 406 753 422 767 q 383 734 390 740 q 359 710 376 728 q 338 690 342 693 q 247 672 299 654 q 207 725 204 688 q 228 765 208 744 z "},"3":{"ha":751,"x_min":60,"x_max":763,"o":"m 215 194 q 486 183 376 113 q 569 318 561 232 q 504 457 578 408 q 479 471 493 464 q 426 481 454 479 q 364 476 399 482 q 312 466 329 469 q 256 451 294 463 q 200 453 225 444 q 163 478 175 461 q 151 518 151 496 q 167 557 151 540 q 240 606 192 582 q 328 647 288 631 q 410 694 369 664 q 467 764 450 725 q 446 824 493 826 q 282 757 410 821 q 253 744 261 747 q 181 750 208 728 q 162 809 154 772 q 213 864 169 846 q 281 897 232 872 q 368 936 331 922 q 442 956 406 950 q 542 949 499 963 q 606 906 585 935 q 634 839 628 878 q 630 760 640 800 q 593 680 619 719 q 528 613 567 640 q 704 490 647 590 q 722 276 761 390 q 456 21 657 63 q 174 54 313 -7 q 71 140 82 94 q 128 199 61 181 q 151 204 139 203 q 215 194 185 211 z "},"4":{"ha":728,"x_min":64,"x_max":707,"o":"m 586 28 q 554 -18 581 -4 q 498 -28 528 -32 q 445 -3 468 -24 q 425 47 422 17 q 464 429 440 235 q 442 425 456 428 q 388 417 428 422 q 313 410 349 413 q 232 410 276 407 q 154 422 188 413 q 97 451 121 431 q 71 503 74 471 q 80 583 65 540 q 124 678 94 625 q 163 751 154 731 q 195 820 176 775 q 233 902 214 865 q 276 964 253 939 q 399 906 400 992 q 307 668 397 843 q 256 556 263 581 q 373 560 297 558 q 481 564 449 563 q 497 678 488 601 q 518 814 507 754 q 546 925 529 874 q 595 963 560 958 q 661 945 631 967 q 693 892 692 924 q 676 694 696 824 q 654 547 657 565 q 693 515 679 536 q 707 475 707 494 q 689 442 707 456 q 639 428 671 428 q 586 28 603 161 z "},"5":{"ha":944,"x_min":53,"x_max":882,"o":"m 764 290 q 663 116 743 189 q 478 17 582 43 q 274 13 374 -10 q 81 110 119 44 q 88 190 53 153 q 172 222 124 226 q 235 204 194 217 q 303 185 276 192 q 369 171 331 178 q 435 167 407 164 q 492 180 463 169 q 545 216 522 190 q 586 282 568 242 q 590 383 604 328 q 532 465 575 439 q 306 436 454 513 q 244 425 275 424 q 196 450 213 426 q 194 508 179 474 q 208 595 201 532 q 222 720 215 658 q 242 842 229 782 q 283 935 256 903 q 350 956 310 967 q 465 958 403 958 q 572 957 528 958 q 690 953 615 956 q 799 949 764 950 q 858 913 835 944 q 872 851 882 882 q 818 817 863 819 q 390 828 607 817 q 377 719 386 799 q 361 594 368 639 q 488 619 425 618 q 607 592 551 619 q 703 524 663 565 q 760 420 743 482 q 764 290 778 358 z "},"6":{"ha":786,"x_min":64,"x_max":781,"o":"m 590 769 q 431 571 500 679 q 651 559 564 594 q 758 451 738 524 q 763 294 779 378 q 679 131 747 210 q 517 13 611 53 q 385 1 451 -14 q 265 51 318 15 q 178 147 211 86 q 149 275 146 208 q 85 308 106 285 q 69 358 65 331 q 92 415 74 386 q 140 467 110 443 q 201 501 169 490 q 275 631 242 578 q 357 751 308 685 q 462 867 406 818 q 579 946 518 917 q 660 928 622 960 q 674 854 699 896 q 651 824 665 839 q 618 794 638 810 q 590 769 599 778 m 575 418 q 331 353 492 435 q 363 157 290 185 q 492 200 417 136 q 585 342 563 261 q 589 387 590 358 q 575 418 588 415 z "},"7":{"ha":806,"x_min":61,"x_max":746,"o":"m 726 871 q 593 597 644 704 q 476 340 542 490 q 364 57 411 189 q 283 0 346 10 q 204 26 225 -8 q 203 74 193 46 q 533 815 357 525 q 125 824 282 807 q 72 858 81 828 q 86 919 63 889 q 146 954 110 950 q 675 964 321 974 q 732 932 719 963 q 726 871 744 901 z "},"8":{"ha":788,"x_min":61,"x_max":806,"o":"m 69 204 q 317 556 61 385 q 256 683 267 617 q 267 802 244 749 q 334 897 289 856 q 436 958 379 939 q 559 966 493 976 q 682 911 625 956 q 737 828 722 872 q 744 744 751 785 q 712 661 736 703 q 656 586 688 619 q 585 521 625 553 q 757 208 806 363 q 583 40 724 104 q 285 -3 433 -28 q 82 151 125 24 q 69 204 72 176 m 458 800 q 444 781 449 792 q 441 756 440 769 q 443 731 442 742 q 452 704 444 721 q 463 680 460 688 q 476 655 467 672 q 488 635 485 638 q 556 726 539 664 q 531 807 571 790 q 458 800 503 818 m 256 300 q 300 150 201 185 q 485 158 379 122 q 589 240 579 190 q 578 283 592 263 q 482 382 550 322 q 401 454 414 442 q 256 300 297 379 z "},"9":{"ha":789,"x_min":-21,"x_max":722,"o":"m 111 97 q 196 190 140 135 q 297 296 251 244 q 369 401 342 347 q 43 460 128 344 q 32 685 -21 547 q 218 913 85 825 q 281 947 249 933 q 388 968 335 968 q 488 944 440 968 q 570 883 535 919 q 624 796 606 847 q 636 689 643 744 q 718 631 722 688 q 646 515 714 575 q 582 475 613 488 q 507 345 542 401 q 424 224 472 289 q 320 109 376 160 q 201 26 264 58 q 139 21 169 10 q 105 50 114 31 q 111 97 96 69 m 225 547 q 456 600 307 529 q 467 698 465 651 q 445 777 469 744 q 369 813 421 810 q 251 732 317 815 q 192 589 188 649 q 225 547 197 556 z "},"\u0000":{"ha":0,"x_min":0,"x_max":0,"o":""},"\n":{"ha":0,"x_min":0,"x_max":0,"o":""},"\r":{"ha":0,"x_min":0,"x_max":0,"o":""}," ":{"ha":419,"x_min":0,"x_max":0,"o":""},"!":{"ha":294,"x_min":6,"x_max":267,"o":"m 211 71 q 213 60 211 71 q 174 -14 218 7 q 81 -14 131 -35 q 22 54 31 7 q 65 139 6 119 q 172 124 121 157 q 211 71 203 103 m 213 239 q 185 193 210 207 q 134 183 161 179 q 84 208 107 188 q 60 256 61 228 q 113 911 61 543 q 156 951 121 949 q 224 931 192 954 q 261 878 257 907 q 258 676 267 783 q 234 439 250 569 q 213 239 218 308 z "},"\"":{"ha":497,"x_min":15,"x_max":519,"o":"m 99 953 q 219 914 193 956 q 144 700 274 831 q 94 675 125 679 q 40 686 64 671 q 20 723 21 703 q 29 758 19 743 q 57 794 39 772 q 81 826 75 817 q 26 860 36 829 q 38 922 15 892 q 99 953 61 951 m 465 914 q 389 700 518 831 q 339 675 369 679 q 286 686 308 671 q 265 723 265 703 q 275 758 265 743 q 302 794 285 772 q 326 826 319 817 q 272 860 282 829 q 284 922 261 892 q 344 953 307 951 q 465 914 438 956 z "},"#":{"ha":807,"x_min":-4,"x_max":819,"o":"m 747 574 q 650 568 704 571 q 632 450 633 461 q 717 444 676 449 q 775 411 753 440 q 788 352 797 382 q 736 318 779 322 q 611 311 679 311 q 597 219 604 276 l 561 21 q 539 -19 557 -4 q 498 -33 521 -33 q 453 -26 475 -33 q 418 -2 432 -19 q 408 38 404 15 q 449 313 424 136 q 296 314 382 315 l 246 21 q 224 -19 243 -4 q 183 -33 206 -33 q 138 -26 160 -33 q 103 -2 117 -19 q 93 38 90 15 q 135 315 108 138 q 72 322 99 318 q 17 353 38 326 q 4 407 -4 379 q 53 440 13 435 q 154 449 96 447 q 172 571 164 514 q 47 610 90 561 q 42 676 14 647 q 83 697 56 692 q 193 706 131 701 q 228 921 211 822 q 274 960 233 956 q 349 942 314 965 q 381 886 385 919 q 356 710 371 818 q 508 710 432 711 q 542 921 526 825 q 588 960 549 956 q 664 942 628 965 q 694 886 700 919 q 669 703 685 810 q 785 667 742 714 q 793 597 819 628 q 747 574 779 581 m 469 450 q 486 564 478 507 q 335 564 407 563 q 317 449 318 457 q 386 449 358 449 q 432 449 401 449 q 469 450 463 450 z "},"$":{"ha":693,"x_min":21,"x_max":681,"o":"m 438 571 q 632 415 607 547 q 563 164 653 300 q 358 -7 478 36 q 300 -22 329 -18 q 282 -125 288 -92 q 245 -156 276 -153 q 187 -142 214 -160 q 163 -99 160 -125 q 176 -8 167 -76 q 102 41 132 8 q 58 117 72 74 q 40 204 44 161 q 39 294 35 247 q 79 349 39 338 q 160 339 119 361 q 200 276 200 317 q 204 171 199 203 q 238 388 213 228 q 94 434 160 381 q 22 565 28 488 q 50 671 24 621 q 123 761 76 721 q 213 829 169 801 q 313 885 257 857 q 329 1017 322 957 q 363 1057 333 1049 q 421 1049 393 1065 q 446 1004 449 1032 q 438 929 444 999 q 535 951 493 944 q 604 956 576 957 q 649 943 632 954 q 673 918 665 932 q 678 881 681 904 q 668 834 675 857 q 645 777 661 811 q 613 715 629 743 q 575 646 597 686 q 534 622 563 625 q 481 630 506 618 q 440 665 456 642 q 436 711 425 688 q 464 778 447 736 q 418 760 439 768 q 394 569 407 658 q 438 571 417 572 m 263 542 q 282 669 272 603 q 206 538 167 572 q 263 542 214 529 m 425 281 q 444 319 436 303 q 460 357 453 336 q 465 392 467 378 q 456 415 464 406 q 427 424 449 425 q 371 411 406 424 q 332 160 353 283 q 425 281 388 213 z "},"%":{"ha":1225,"x_min":56,"x_max":1157,"o":"m 1118 471 q 1156 326 1156 410 q 1121 172 1157 243 q 993 39 1083 99 q 813 -21 903 -21 q 665 47 721 -21 q 630 194 625 106 q 682 372 635 282 q 790 508 722 451 q 938 564 858 564 l 944 564 q 1118 471 1061 564 m 928 163 q 986 272 968 200 q 974 397 1004 343 q 917 431 953 431 q 883 414 896 431 q 922 292 850 374 q 929 253 939 271 q 899 224 922 236 q 851 213 876 213 q 811 226 825 213 l 799 239 l 793 222 q 799 149 779 175 q 846 126 815 126 q 928 163 889 126 m 268 408 q 162 435 208 408 q 90 511 115 463 q 78 676 56 582 q 175 869 100 769 q 381 994 263 994 q 485 965 435 994 q 567 885 535 935 q 603 748 603 822 q 564 600 603 674 q 426 458 504 508 q 268 408 349 408 m 232 617 q 251 567 233 583 q 286 551 264 551 q 351 578 315 551 q 410 646 386 606 q 418 824 465 742 l 418 825 q 360 858 396 858 q 326 842 339 858 q 365 719 293 801 q 372 681 382 699 q 342 652 365 664 q 294 640 319 640 q 254 654 268 640 l 240 668 q 233 636 235 646 q 232 617 232 625 m 824 951 q 869 977 840 975 q 923 964 899 979 q 960 924 947 949 q 956 871 974 900 q 408 -21 696 438 q 371 -48 396 -42 q 322 -45 346 -54 q 278 -19 299 -36 q 253 21 257 -3 q 263 69 249 44 q 413 313 322 171 q 644 674 503 456 q 824 951 786 892 z "},"&":{"ha":871,"x_min":51,"x_max":810,"o":"m 671 335 q 763 331 711 363 q 800 263 810 301 q 778 231 794 244 q 690 167 735 197 q 764 31 739 78 q 744 -58 797 -28 q 647 -62 697 -86 q 607 -25 619 -50 q 551 81 603 -18 q 188 -1 331 -54 q 72 144 89 36 q 158 407 53 272 q 310 543 218 482 q 256 635 274 603 q 219 715 239 668 q 203 791 200 763 q 224 852 207 819 q 284 907 240 885 q 397 944 328 929 q 520 954 468 960 q 612 931 572 949 q 672 883 651 914 q 701 817 693 853 q 699 740 710 782 q 666 656 689 697 q 601 572 643 614 q 506 496 560 531 q 618 297 550 421 q 671 335 647 317 m 404 797 q 367 772 371 782 q 378 731 363 763 q 428 631 399 686 q 536 753 507 685 q 511 824 565 818 q 404 797 474 826 m 317 132 q 482 210 396 161 q 383 401 439 293 q 238 226 271 308 q 224 158 221 189 q 249 118 226 128 q 317 132 272 108 z "},"'":{"ha":253,"x_min":15,"x_max":274,"o":"m 219 914 q 144 700 274 831 q 94 675 125 679 q 40 686 64 671 q 21 715 25 700 q 24 744 17 729 q 40 772 31 760 q 62 801 49 785 q 81 826 75 817 q 24 875 26 831 q 60 940 21 917 q 99 953 78 953 q 219 914 193 956 z "},"(":{"ha":572,"x_min":28,"x_max":518,"o":"m 407 1101 q 489 1064 460 1108 q 489 990 518 1021 q 447 972 474 976 q 257 690 297 946 q 238 497 251 653 q 225 331 225 342 q 216 213 218 261 q 218 107 214 164 q 241 14 222 50 q 292 -36 260 -22 q 340 -69 324 -47 q 355 -112 357 -90 q 340 -154 353 -135 q 302 -180 328 -174 q 244 -176 276 -186 q 168 -140 201 -162 q 112 -90 135 -117 q 73 -24 89 -62 q 47 48 57 14 q 33 129 38 82 q 28 212 29 176 q 31 299 28 247 q 38 381 35 350 q 47 463 42 413 q 54 535 53 513 q 66 639 60 594 q 85 743 72 683 q 113 846 97 803 q 156 937 129 889 q 216 1016 182 985 q 299 1071 250 1047 q 407 1101 347 1094 z "},")":{"ha":571,"x_min":61,"x_max":543,"o":"m 346 1088 q 444 1026 404 1065 q 504 937 485 988 q 533 833 524 886 q 540 715 542 781 q 533 596 538 649 q 521 476 528 543 q 513 369 514 410 q 499 264 507 311 q 478 160 492 217 q 447 59 464 104 q 401 -31 429 14 q 337 -108 372 -76 q 251 -162 301 -139 q 143 -192 201 -185 q 71 -154 82 -199 q 99 -82 61 -112 q 143 -61 117 -67 q 318 224 285 -37 q 338 440 325 275 q 354 681 351 606 q 257 946 363 899 q 214 1019 194 967 q 279 1083 229 1063 q 346 1088 314 1099 z "},"*":{"ha":439,"x_min":17,"x_max":424,"o":"m 382 781 q 422 746 424 781 q 388 693 421 711 l 368 688 q 301 682 338 683 q 325 636 306 667 q 358 582 344 606 q 369 534 372 558 q 338 497 367 510 q 297 502 315 494 q 266 528 279 510 q 244 564 253 546 q 224 606 235 582 q 206 640 214 629 q 126 518 168 586 q 64 493 110 489 q 24 524 24 496 q 28 540 24 532 q 107 675 56 604 q 57 675 81 675 q 18 709 18 675 q 51 761 18 743 q 71 767 61 765 q 156 774 114 771 q 160 816 157 789 q 165 850 164 843 q 179 877 167 867 q 208 888 192 888 q 240 884 224 889 q 265 866 256 879 q 274 838 275 853 q 271 779 272 815 q 382 781 335 782 z "},"+":{"ha":756,"x_min":65,"x_max":694,"o":"m 632 506 q 685 469 676 499 q 671 413 693 440 q 613 379 649 385 q 458 372 556 369 q 450 181 463 243 q 410 144 444 150 q 342 154 376 138 q 304 199 308 171 q 296 376 292 261 q 122 379 171 379 q 69 424 72 381 q 103 492 67 465 q 142 504 121 504 q 299 507 175 504 q 303 686 301 632 q 341 737 304 726 q 415 726 378 747 q 451 669 451 706 q 456 511 453 633 q 632 506 574 515 z "},",":{"ha":240,"x_min":6,"x_max":264,"o":"m 210 86 q 135 -128 264 3 q 85 -151 115 -147 q 31 -140 54 -156 q 10 -105 11 -125 q 19 -70 10 -85 q 47 -33 29 -56 q 71 -1 65 -11 q 16 34 26 3 q 28 95 6 65 q 89 125 51 125 q 210 86 183 128 z "},"-":{"ha":646,"x_min":0,"x_max":639,"o":"m 557 506 q 615 472 593 500 q 628 415 638 443 q 576 379 619 386 q 413 372 474 371 q 249 376 353 372 q 86 381 146 381 q 19 428 40 381 q 32 494 1 472 q 67 504 46 504 q 231 508 126 504 q 394 512 335 511 q 557 506 454 513 z "},".":{"ha":222,"x_min":0,"x_max":214,"o":"m 207 60 q 169 -14 213 7 q 75 -14 125 -35 q 17 54 25 7 q 60 139 0 119 q 167 124 115 157 q 206 71 197 103 q 207 61 207 68 l 207 60 z "},"/":{"ha":825,"x_min":65,"x_max":758,"o":"m 614 922 q 649 947 626 942 q 693 944 672 951 q 732 922 714 936 q 754 885 750 907 q 746 842 758 864 q 226 22 499 443 q 188 -5 214 1 q 139 -2 163 -11 q 95 24 115 7 q 71 64 75 40 q 81 111 67 88 q 220 332 135 201 q 444 668 306 463 q 614 922 582 874 z "},":":{"ha":236,"x_min":7,"x_max":222,"o":"m 213 71 q 214 60 213 71 q 161 -18 221 -3 q 57 1 104 -35 q 24 54 29 22 q 67 139 7 119 q 174 124 122 157 q 213 71 204 103 m 214 379 q 176 306 221 326 q 82 306 132 286 q 24 374 32 326 q 67 458 7 439 q 174 443 122 476 q 213 390 204 422 q 214 381 214 388 l 214 379 z "},";":{"ha":250,"x_min":10,"x_max":268,"o":"m 225 379 q 188 306 232 326 q 94 306 143 286 q 36 374 44 326 q 78 458 18 438 q 183 444 132 476 q 224 392 215 425 q 225 381 225 389 q 225 379 225 381 m 214 86 q 139 -128 268 3 q 89 -151 119 -147 q 35 -140 58 -156 q 15 -105 15 -125 q 24 -70 14 -85 q 51 -33 33 -56 q 75 -1 69 -11 q 20 34 31 3 q 33 95 10 65 q 93 125 56 125 q 214 86 188 128 z "},"<":{"ha":851,"x_min":64,"x_max":850,"o":"m 788 324 q 828 249 850 301 q 760 189 810 206 q 700 186 728 178 q 108 399 379 288 q 71 433 78 411 q 79 475 64 456 q 86 490 83 481 q 105 512 89 500 q 129 528 121 524 q 710 731 346 628 q 803 704 760 742 q 818 632 844 667 q 788 608 806 618 q 690 565 744 588 q 599 529 636 543 q 497 490 563 515 q 403 456 431 465 q 788 324 592 396 z "},"=":{"ha":571,"x_min":15,"x_max":558,"o":"m 72 513 q 19 556 22 514 q 53 624 17 597 q 92 636 71 636 q 226 640 140 636 q 363 645 313 644 q 497 638 413 646 q 549 601 540 629 q 536 545 558 572 q 478 511 514 518 q 355 501 421 501 q 197 506 289 500 q 72 513 106 511 m 497 396 q 549 359 540 388 q 536 303 558 331 q 478 269 514 276 q 355 258 421 258 q 197 264 289 258 q 72 271 106 269 q 19 314 22 272 q 53 382 17 356 q 92 394 71 394 q 226 398 140 394 q 363 403 313 401 q 497 396 413 404 z "},">":{"ha":840,"x_min":11,"x_max":779,"o":"m 713 522 q 767 487 757 518 q 755 424 778 456 q 692 389 732 392 q 125 188 315 247 q 58 189 88 175 q 21 228 29 203 q 26 281 13 253 q 79 324 40 310 q 467 456 278 396 q 57 618 158 571 q 22 659 29 635 q 28 702 15 683 q 63 731 40 721 q 118 729 86 742 q 704 525 456 635 q 713 522 708 522 z "},"?":{"ha":608,"x_min":18,"x_max":544,"o":"m 224 71 q 226 61 225 68 l 226 60 q 174 -18 233 -3 q 68 1 117 -35 q 36 54 42 22 q 79 139 19 119 q 186 124 133 157 q 224 71 217 103 m 39 768 q 132 871 76 829 q 244 928 188 913 q 358 936 301 944 q 456 897 414 928 q 522 804 499 865 q 536 661 544 743 q 425 481 517 551 q 222 417 333 410 q 217 323 218 385 q 214 235 217 261 q 170 179 213 190 q 88 191 128 168 q 50 254 47 214 q 54 351 58 304 q 60 449 50 397 q 99 533 69 501 q 139 552 117 547 q 181 556 161 557 q 225 556 201 554 q 344 628 293 560 q 378 764 394 696 q 353 806 369 794 q 317 811 338 818 q 275 792 296 804 q 231 757 254 779 q 194 720 207 735 q 167 690 181 706 q 99 669 143 663 q 37 705 56 676 q 39 768 18 733 z "},"@":{"ha":1074,"x_min":14,"x_max":1115,"o":"m 1031 717 q 989 378 1114 549 q 761 197 900 257 q 568 188 631 142 q 535 265 535 213 q 258 326 326 215 q 258 531 208 410 q 411 707 307 650 q 660 711 531 772 q 715 731 683 729 q 768 715 747 733 q 779 664 789 697 q 710 332 739 517 q 843 438 790 371 q 900 586 896 504 q 874 692 904 649 q 798 754 844 735 q 689 780 751 774 q 573 783 626 786 q 468 769 519 779 q 258 634 343 740 q 175 401 172 528 q 256 226 176 285 q 450 185 335 167 q 531 147 496 192 q 538 74 567 103 q 508 58 526 63 q 363 45 432 42 q 240 75 294 49 q 142 140 186 101 q 70 232 97 179 q 28 342 43 285 q 19 461 14 399 q 42 583 24 524 q 102 699 61 642 q 200 800 143 756 q 399 894 278 863 q 641 919 519 925 q 871 862 763 914 q 1031 717 979 810 m 578 449 q 600 543 588 494 q 541 602 585 601 q 456 565 497 603 q 403 485 414 528 q 447 393 376 390 q 578 449 506 396 z "},"A":{"ha":690,"x_min":-14,"x_max":694,"o":"m 603 404 q 660 394 636 410 q 688 356 683 379 q 679 308 693 332 q 632 274 665 283 q 642 235 636 258 q 653 194 649 211 q 663 155 658 176 q 669 113 667 133 q 671 74 671 92 q 639 23 671 38 q 571 19 607 8 q 521 57 535 29 q 501 110 510 81 q 487 160 492 140 q 474 217 482 179 q 464 269 467 256 q 249 275 346 272 q 140 26 193 140 q 85 -12 125 -4 q 16 -1 46 -21 q -3 58 -14 19 q 65 285 26 165 q 31 326 35 294 q 51 383 28 357 q 108 408 75 410 q 181 588 131 463 q 268 800 231 714 q 332 931 306 886 q 378 957 344 954 q 442 944 411 960 q 481 903 472 928 q 525 749 504 832 q 567 562 546 665 q 603 404 589 458 m 301 408 q 432 407 371 408 q 381 628 406 526 q 301 408 342 515 z "},"À":{"ha":690,"x_min":-14,"x_max":694,"o":"m 603 404 q 660 394 636 410 q 688 356 683 379 q 679 308 693 332 q 632 274 665 283 q 642 235 636 258 q 653 194 649 211 q 663 155 658 176 q 669 113 667 133 q 671 74 671 92 q 639 23 671 38 q 571 19 607 8 q 521 57 535 29 q 501 110 510 81 q 487 160 492 140 q 474 217 482 179 q 464 269 467 256 q 249 275 346 272 q 140 26 193 140 q 85 -12 125 -4 q 16 -1 46 -21 q -3 58 -14 19 q 65 285 26 165 q 31 326 35 294 q 51 383 28 357 q 108 408 75 410 q 181 588 131 463 q 268 800 231 714 q 332 931 306 886 q 378 957 344 954 q 442 944 411 960 q 481 903 472 928 q 525 749 504 832 q 567 562 546 665 q 603 404 589 458 m 301 408 q 432 407 371 408 q 381 628 406 526 q 301 408 342 515 z "},"Á":{"ha":690,"x_min":-14,"x_max":694,"o":"m 603 404 q 660 394 636 410 q 688 356 683 379 q 679 308 693 332 q 632 274 665 283 q 642 235 636 258 q 653 194 649 211 q 663 155 658 176 q 669 113 667 133 q 671 74 671 92 q 639 23 671 38 q 571 19 607 8 q 521 57 535 29 q 501 110 510 81 q 487 160 492 140 q 474 217 482 179 q 464 269 467 256 q 249 275 346 272 q 140 26 193 140 q 85 -12 125 -4 q 16 -1 46 -21 q -3 58 -14 19 q 65 285 26 165 q 31 326 35 294 q 51 383 28 357 q 108 408 75 410 q 181 588 131 463 q 268 800 231 714 q 332 931 306 886 q 378 957 344 954 q 442 944 411 960 q 481 903 472 928 q 525 749 504 832 q 567 562 546 665 q 603 404 589 458 m 301 408 q 432 407 371 408 q 381 628 406 526 q 301 408 342 515 z "},"Â":{"ha":690,"x_min":-14,"x_max":694,"o":"m 603 404 q 660 394 636 410 q 688 356 683 379 q 679 308 693 332 q 632 274 665 283 q 642 235 636 258 q 653 194 649 211 q 663 155 658 176 q 669 113 667 133 q 671 74 671 92 q 639 23 671 38 q 571 19 607 8 q 521 57 535 29 q 501 110 510 81 q 487 160 492 140 q 474 217 482 179 q 464 269 467 256 q 249 275 346 272 q 140 26 193 140 q 85 -12 125 -4 q 16 -1 46 -21 q -3 58 -14 19 q 65 285 26 165 q 31 326 35 294 q 51 383 28 357 q 108 408 75 410 q 181 588 131 463 q 268 800 231 714 q 332 931 306 886 q 378 957 344 954 q 442 944 411 960 q 481 903 472 928 q 525 749 504 832 q 567 562 546 665 q 603 404 589 458 m 301 408 q 432 407 371 408 q 381 628 406 526 q 301 408 342 515 z "},"Ã":{"ha":690,"x_min":-14,"x_max":694,"o":"m 603 404 q 660 394 636 410 q 688 356 683 379 q 679 308 693 332 q 632 274 665 283 q 642 235 636 258 q 653 194 649 211 q 663 155 658 176 q 669 113 667 133 q 671 74 671 92 q 639 23 671 38 q 571 19 607 8 q 521 57 535 29 q 501 110 510 81 q 487 160 492 140 q 474 217 482 179 q 464 269 467 256 q 249 275 346 272 q 140 26 193 140 q 85 -12 125 -4 q 16 -1 46 -21 q -3 58 -14 19 q 65 285 26 165 q 31 326 35 294 q 51 383 28 357 q 108 408 75 410 q 181 588 131 463 q 268 800 231 714 q 332 931 306 886 q 378 957 344 954 q 442 944 411 960 q 481 903 472 928 q 525 749 504 832 q 567 562 546 665 q 603 404 589 458 m 301 408 q 432 407 371 408 q 381 628 406 526 q 301 408 342 515 z "},"Ä":{"ha":690,"x_min":-14,"x_max":694,"o":"m 603 404 q 660 394 636 410 q 688 356 683 379 q 679 308 693 332 q 632 274 665 283 q 642 235 636 258 q 653 194 649 211 q 663 155 658 176 q 669 113 667 133 q 671 74 671 92 q 639 23 671 38 q 571 19 607 8 q 521 57 535 29 q 501 110 510 81 q 487 160 492 140 q 474 217 482 179 q 464 269 467 256 q 249 275 346 272 q 140 26 193 140 q 85 -12 125 -4 q 16 -1 46 -21 q -3 58 -14 19 q 65 285 26 165 q 31 326 35 294 q 51 383 28 357 q 108 408 75 410 q 181 588 131 463 q 268 800 231 714 q 332 931 306 886 q 378 957 344 954 q 442 944 411 960 q 481 903 472 928 q 525 749 504 832 q 567 562 546 665 q 603 404 589 458 m 301 408 q 432 407 371 408 q 381 628 406 526 q 301 408 342 515 z "},"Å":{"ha":690,"x_min":-14,"x_max":694,"o":"m 603 404 q 660 394 636 410 q 688 356 683 379 q 679 308 693 332 q 632 274 665 283 q 642 235 636 258 q 653 194 649 211 q 663 155 658 176 q 669 113 667 133 q 671 74 671 92 q 639 23 671 38 q 571 19 607 8 q 521 57 535 29 q 501 110 510 81 q 487 160 492 140 q 474 217 482 179 q 464 269 467 256 q 249 275 346 272 q 140 26 193 140 q 85 -12 125 -4 q 16 -1 46 -21 q -3 58 -14 19 q 65 285 26 165 q 31 326 35 294 q 51 383 28 357 q 108 408 75 410 q 181 588 131 463 q 268 800 231 714 q 332 931 306 886 q 378 957 344 954 q 442 944 411 960 q 481 903 472 928 q 525 749 504 832 q 567 562 546 665 q 603 404 589 458 m 301 408 q 432 407 371 408 q 381 628 406 526 q 301 408 342 515 z "},"B":{"ha":710,"x_min":-8,"x_max":706,"o":"m 700 324 q 676 202 704 256 q 598 117 647 149 q 482 64 549 85 q 349 37 415 43 q 215 33 282 31 q 172 6 207 11 q 101 17 138 1 q 54 61 64 32 q 6 105 19 72 q 8 168 -8 138 q 63 203 24 199 q 104 489 76 293 q 149 788 132 685 q 76 896 29 844 q 257 951 119 944 q 546 892 433 963 q 646 747 632 838 q 642 667 651 710 q 607 586 632 624 q 547 528 582 549 q 700 324 690 465 m 319 813 q 299 611 315 733 q 355 615 328 611 q 408 629 382 619 q 452 655 435 639 q 478 694 469 671 q 476 749 486 717 q 319 813 454 829 m 249 197 q 478 264 404 192 q 500 372 532 318 q 300 443 457 444 q 278 443 289 443 q 249 197 256 256 z "},"C":{"ha":643,"x_min":-25,"x_max":632,"o":"m 331 14 q 40 225 114 39 q 42 594 -24 386 q 244 901 104 792 q 532 982 378 1006 q 587 960 565 976 q 617 922 608 943 q 626 872 625 901 q 623 817 628 843 q 609 761 618 792 q 592 712 600 731 q 575 672 585 693 q 565 649 565 650 q 535 614 557 626 q 488 601 513 601 q 439 607 463 600 q 402 632 415 614 q 394 674 389 650 q 426 818 406 735 q 254 662 318 775 q 186 414 190 549 q 186 344 183 386 q 195 260 189 301 q 226 190 201 219 q 289 161 250 161 q 356 181 326 161 q 404 232 386 200 q 433 298 422 264 q 447 368 443 332 q 515 417 454 419 q 608 368 572 413 q 626 308 632 340 q 529 96 606 179 q 331 14 453 13 z "},"Ç":{"ha":643,"x_min":-25,"x_max":632,"o":"m 331 14 q 40 225 114 39 q 42 594 -24 386 q 244 901 104 792 q 532 982 378 1006 q 587 960 565 976 q 617 922 608 943 q 626 872 625 901 q 623 817 628 843 q 609 761 618 792 q 592 712 600 731 q 575 672 585 693 q 565 649 565 650 q 535 614 557 626 q 488 601 513 601 q 439 607 463 600 q 402 632 415 614 q 394 674 389 650 q 426 818 406 735 q 254 662 318 775 q 186 414 190 549 q 186 344 183 386 q 195 260 189 301 q 226 190 201 219 q 289 161 250 161 q 356 181 326 161 q 404 232 386 200 q 433 298 422 264 q 447 368 443 332 q 515 417 454 419 q 608 368 572 413 q 626 308 632 340 q 529 96 606 179 q 331 14 453 13 z "},"D":{"ha":719,"x_min":-18,"x_max":724,"o":"m 126 954 q 567 897 401 1046 q 708 585 692 785 q 622 226 724 386 q 289 24 506 43 q 185 25 239 19 q 122 18 156 11 q 81 54 88 25 q -1 124 15 69 q 21 197 -18 172 q 85 208 46 213 q 94 272 93 258 q 175 824 163 743 q 114 849 142 822 q 87 908 86 876 q 126 954 88 940 m 256 178 q 405 260 339 192 q 499 417 471 329 q 521 604 528 506 q 464 774 514 703 q 336 838 421 831 q 292 476 322 711 q 256 178 263 242 z "},"E":{"ha":744,"x_min":1,"x_max":761,"o":"m 714 936 q 755 897 749 926 q 742 839 761 867 q 694 804 724 811 q 569 790 638 792 q 422 793 501 789 q 296 796 343 797 q 275 611 294 785 q 355 614 306 611 q 442 616 404 617 q 519 607 481 615 q 521 607 521 607 q 565 583 547 601 q 587 544 583 565 q 578 501 590 522 q 539 469 565 481 q 506 464 525 465 q 260 463 485 464 q 251 397 260 450 q 235 290 243 343 q 228 191 226 236 q 246 142 229 146 q 392 176 294 144 q 539 211 490 207 q 588 205 567 215 q 615 176 608 194 q 619 138 621 158 q 601 99 617 118 q 561 74 586 81 q 401 28 465 44 q 276 5 336 13 q 179 3 215 -3 q 114 28 143 8 q 74 83 85 49 q 60 174 63 118 q 66 300 57 229 q 94 469 75 371 q 89 470 93 469 q 82 471 85 471 q 22 507 40 482 q 8 555 3 532 q 41 594 13 578 q 111 607 69 611 q 124 710 117 643 q 135 807 131 778 q 63 838 82 807 q 64 903 43 869 q 132 943 85 938 q 714 936 469 972 z "},"È":{"ha":744,"x_min":1,"x_max":761,"o":"m 714 936 q 755 897 749 926 q 742 839 761 867 q 694 804 724 811 q 569 790 638 792 q 422 793 501 789 q 296 796 343 797 q 275 611 294 785 q 355 614 306 611 q 442 616 404 617 q 519 607 481 615 q 521 607 521 607 q 565 583 547 601 q 587 544 583 565 q 578 501 590 522 q 539 469 565 481 q 506 464 525 465 q 260 463 485 464 q 251 397 260 450 q 235 290 243 343 q 228 191 226 236 q 246 142 229 146 q 392 176 294 144 q 539 211 490 207 q 588 205 567 215 q 615 176 608 194 q 619 138 621 158 q 601 99 617 118 q 561 74 586 81 q 401 28 465 44 q 276 5 336 13 q 179 3 215 -3 q 114 28 143 8 q 74 83 85 49 q 60 174 63 118 q 66 300 57 229 q 94 469 75 371 q 89 470 93 469 q 82 471 85 471 q 22 507 40 482 q 8 555 3 532 q 41 594 13 578 q 111 607 69 611 q 124 710 117 643 q 135 807 131 778 q 63 838 82 807 q 64 903 43 869 q 132 943 85 938 q 714 936 469 972 z "},"É":{"ha":744,"x_min":1,"x_max":761,"o":"m 714 936 q 755 897 749 926 q 742 839 761 867 q 694 804 724 811 q 569 790 638 792 q 422 793 501 789 q 296 796 343 797 q 275 611 294 785 q 355 614 306 611 q 442 616 404 617 q 519 607 481 615 q 521 607 521 607 q 565 583 547 601 q 587 544 583 565 q 578 501 590 522 q 539 469 565 481 q 506 464 525 465 q 260 463 485 464 q 251 397 260 450 q 235 290 243 343 q 228 191 226 236 q 246 142 229 146 q 392 176 294 144 q 539 211 490 207 q 588 205 567 215 q 615 176 608 194 q 619 138 621 158 q 601 99 617 118 q 561 74 586 81 q 401 28 465 44 q 276 5 336 13 q 179 3 215 -3 q 114 28 143 8 q 74 83 85 49 q 60 174 63 118 q 66 300 57 229 q 94 469 75 371 q 89 470 93 469 q 82 471 85 471 q 22 507 40 482 q 8 555 3 532 q 41 594 13 578 q 111 607 69 611 q 124 710 117 643 q 135 807 131 778 q 63 838 82 807 q 64 903 43 869 q 132 943 85 938 q 714 936 469 972 z "},"Ê":{"ha":744,"x_min":1,"x_max":761,"o":"m 714 936 q 755 897 749 926 q 742 839 761 867 q 694 804 724 811 q 569 790 638 792 q 422 793 501 789 q 296 796 343 797 q 275 611 294 785 q 355 614 306 611 q 442 616 404 617 q 519 607 481 615 q 521 607 521 607 q 565 583 547 601 q 587 544 583 565 q 578 501 590 522 q 539 469 565 481 q 506 464 525 465 q 260 463 485 464 q 251 397 260 450 q 235 290 243 343 q 228 191 226 236 q 246 142 229 146 q 392 176 294 144 q 539 211 490 207 q 588 205 567 215 q 615 176 608 194 q 619 138 621 158 q 601 99 617 118 q 561 74 586 81 q 401 28 465 44 q 276 5 336 13 q 179 3 215 -3 q 114 28 143 8 q 74 83 85 49 q 60 174 63 118 q 66 300 57 229 q 94 469 75 371 q 89 470 93 469 q 82 471 85 471 q 22 507 40 482 q 8 555 3 532 q 41 594 13 578 q 111 607 69 611 q 124 710 117 643 q 135 807 131 778 q 63 838 82 807 q 64 903 43 869 q 132 943 85 938 q 714 936 469 972 z "},"Ë":{"ha":744,"x_min":1,"x_max":761,"o":"m 714 936 q 755 897 749 926 q 742 839 761 867 q 694 804 724 811 q 569 790 638 792 q 422 793 501 789 q 296 796 343 797 q 275 611 294 785 q 355 614 306 611 q 442 616 404 617 q 519 607 481 615 q 521 607 521 607 q 565 583 547 601 q 587 544 583 565 q 578 501 590 522 q 539 469 565 481 q 506 464 525 465 q 260 463 485 464 q 251 397 260 450 q 235 290 243 343 q 228 191 226 236 q 246 142 229 146 q 392 176 294 144 q 539 211 490 207 q 588 205 567 215 q 615 176 608 194 q 619 138 621 158 q 601 99 617 118 q 561 74 586 81 q 401 28 465 44 q 276 5 336 13 q 179 3 215 -3 q 114 28 143 8 q 74 83 85 49 q 60 174 63 118 q 66 300 57 229 q 94 469 75 371 q 89 470 93 469 q 82 471 85 471 q 22 507 40 482 q 8 555 3 532 q 41 594 13 578 q 111 607 69 611 q 124 710 117 643 q 135 807 131 778 q 63 838 82 807 q 64 903 43 869 q 132 943 85 938 q 714 936 469 972 z "},"F":{"ha":739,"x_min":-4,"x_max":758,"o":"m 711 936 q 747 908 738 928 q 751 867 757 889 q 730 827 746 846 q 692 804 714 808 q 575 790 639 792 q 435 793 511 789 q 315 796 358 797 q 300 613 311 722 q 366 613 322 611 q 445 613 410 614 q 511 608 481 613 q 570 570 550 601 q 576 506 590 539 q 517 465 563 474 q 286 463 469 463 q 274 340 282 429 q 258 182 265 250 q 247 97 251 114 q 181 25 242 47 q 88 32 121 3 q 74 78 69 49 q 92 277 81 146 q 111 468 104 408 q 79 471 93 469 q 20 506 43 476 q 6 565 -3 535 q 60 601 15 594 q 126 608 89 606 q 151 804 138 713 q 93 814 118 803 q 59 844 68 825 q 52 882 50 863 q 75 919 54 901 q 129 943 96 936 q 711 936 468 972 z "},"G":{"ha":693,"x_min":-39,"x_max":690,"o":"m 21 219 q 124 671 -39 444 q 396 914 236 828 q 613 950 540 992 q 654 886 646 929 q 579 626 582 639 q 507 575 565 583 q 428 600 449 567 q 424 640 419 618 q 461 790 442 714 q 276 613 344 733 q 197 351 207 493 q 197 278 193 313 q 215 210 201 243 q 259 160 228 176 q 336 150 290 143 q 478 314 426 165 q 425 310 471 313 q 356 307 379 308 q 272 341 297 304 q 267 416 247 378 q 342 456 288 454 q 410 456 363 451 q 504 465 458 461 q 594 466 550 468 q 665 444 639 464 q 686 383 690 424 q 646 260 668 314 q 588 151 624 206 q 500 58 553 96 q 381 4 447 19 q 224 6 301 -14 q 90 82 146 25 q 21 219 35 139 z "},"H":{"ha":719,"x_min":6,"x_max":726,"o":"m 642 556 q 712 518 699 551 q 697 453 725 485 q 624 415 668 421 q 608 295 614 374 q 590 153 603 217 q 546 43 578 89 q 469 22 515 8 q 407 75 424 35 q 394 159 394 113 q 401 243 394 206 q 416 331 407 281 q 426 414 425 382 q 244 417 306 415 q 201 111 206 142 q 135 39 194 61 q 43 46 75 18 q 28 92 24 63 q 49 259 35 149 q 69 422 63 369 q 43 431 54 425 q 7 476 8 447 q 31 528 6 506 q 88 556 56 551 q 147 896 115 750 q 194 945 154 929 q 271 949 235 961 q 304 897 307 936 q 263 560 293 782 q 447 560 343 561 q 472 718 450 575 q 515 931 493 861 q 566 971 531 967 q 633 952 601 975 q 668 896 664 929 q 658 704 672 831 q 642 556 643 578 z "},"I":{"ha":282,"x_min":10,"x_max":268,"o":"m 264 915 q 267 876 267 899 q 267 841 268 854 q 262 799 265 828 q 258 761 258 769 q 240 593 253 711 q 219 398 228 475 q 197 228 211 321 q 168 82 182 136 q 106 17 163 36 q 24 26 51 -3 q 13 64 10 40 q 30 228 21 132 q 47 402 39 324 q 64 567 54 481 q 87 739 74 654 q 115 899 100 824 q 142 933 121 918 q 189 953 164 949 q 236 949 214 958 q 264 915 258 940 z "},"Ì":{"ha":282,"x_min":10,"x_max":268,"o":"m 264 915 q 267 876 267 899 q 267 841 268 854 q 262 799 265 828 q 258 761 258 769 q 240 593 253 711 q 219 398 228 475 q 197 228 211 321 q 168 82 182 136 q 106 17 163 36 q 24 26 51 -3 q 13 64 10 40 q 30 228 21 132 q 47 402 39 324 q 64 567 54 481 q 87 739 74 654 q 115 899 100 824 q 142 933 121 918 q 189 953 164 949 q 236 949 214 958 q 264 915 258 940 z "},"Í":{"ha":282,"x_min":10,"x_max":268,"o":"m 264 915 q 267 876 267 899 q 267 841 268 854 q 262 799 265 828 q 258 761 258 769 q 240 593 253 711 q 219 398 228 475 q 197 228 211 321 q 168 82 182 136 q 106 17 163 36 q 24 26 51 -3 q 13 64 10 40 q 30 228 21 132 q 47 402 39 324 q 64 567 54 481 q 87 739 74 654 q 115 899 100 824 q 142 933 121 918 q 189 953 164 949 q 236 949 214 958 q 264 915 258 940 z "},"Î":{"ha":282,"x_min":10,"x_max":268,"o":"m 264 915 q 267 876 267 899 q 267 841 268 854 q 262 799 265 828 q 258 761 258 769 q 240 593 253 711 q 219 398 228 475 q 197 228 211 321 q 168 82 182 136 q 106 17 163 36 q 24 26 51 -3 q 13 64 10 40 q 30 228 21 132 q 47 402 39 324 q 64 567 54 481 q 87 739 74 654 q 115 899 100 824 q 142 933 121 918 q 189 953 164 949 q 236 949 214 958 q 264 915 258 940 z "},"Ï":{"ha":282,"x_min":10,"x_max":268,"o":"m 264 915 q 267 876 267 899 q 267 841 268 854 q 262 799 265 828 q 258 761 258 769 q 240 593 253 711 q 219 398 228 475 q 197 228 211 321 q 168 82 182 136 q 106 17 163 36 q 24 26 51 -3 q 13 64 10 40 q 30 228 21 132 q 47 402 39 324 q 64 567 54 481 q 87 739 74 654 q 115 899 100 824 q 142 933 121 918 q 189 953 164 949 q 236 949 214 958 q 264 915 258 940 z "},"J":{"ha":554,"x_min":-33,"x_max":542,"o":"m 510 917 q 535 725 531 829 q 528 509 540 621 q 481 301 515 397 q 385 133 446 206 q 235 33 325 60 q 22 33 144 6 q -12 96 -32 50 q 49 150 6 136 q 78 154 64 156 q 178 171 135 147 q 247 228 222 194 q 290 323 271 261 q 315 422 308 385 q 329 522 321 458 q 329 532 329 529 q 335 694 332 558 q 356 899 338 829 q 397 946 364 929 q 463 956 429 963 q 510 917 497 949 z "},"K":{"ha":728,"x_min":-4,"x_max":743,"o":"m 742 890 q 704 822 740 863 q 612 740 668 782 q 498 656 556 697 q 385 576 440 615 q 308 514 331 536 q 456 286 367 440 q 592 69 546 132 q 575 -1 624 19 q 486 4 532 -21 q 464 25 472 13 q 347 186 422 83 q 240 332 271 289 q 235 226 238 258 q 227 135 233 193 q 213 32 221 76 q 167 -10 204 -7 q 96 12 131 -12 q 57 68 61 36 q 71 367 46 168 q 12 395 26 375 q 8 440 -3 415 q 40 488 19 464 q 89 531 61 511 q 101 699 90 549 q 122 926 113 849 q 138 962 125 949 q 167 979 150 975 q 202 981 183 983 q 238 969 221 978 q 265 944 254 960 q 276 910 275 929 q 268 678 279 814 q 406 794 290 690 q 651 957 574 946 q 742 890 718 967 z "},"L":{"ha":639,"x_min":10,"x_max":661,"o":"m 571 193 q 635 161 610 192 q 652 98 661 131 q 597 58 643 65 l 386 18 q 290 4 333 8 q 200 1 247 0 q 119 16 153 3 q 58 53 85 29 q 21 118 32 76 q 17 218 10 160 q 62 563 32 319 q 115 936 92 806 q 160 976 121 971 q 235 958 200 981 q 268 901 271 935 q 249 697 261 801 q 219 440 238 592 q 193 238 200 289 q 191 219 193 229 q 187 199 189 210 q 183 182 185 188 q 180 164 182 174 q 177 152 178 154 q 179 147 176 150 q 185 144 182 144 q 199 142 189 143 q 375 170 249 146 q 571 193 501 194 z "},"M":{"ha":978,"x_min":-8,"x_max":963,"o":"m 928 442 q 940 350 931 407 q 955 253 950 293 q 960 166 960 213 q 948 81 961 119 q 906 15 935 43 q 830 8 878 -8 q 775 61 782 24 q 726 515 753 186 q 631 302 693 444 q 543 106 568 160 q 490 64 528 72 q 418 73 453 56 q 375 125 383 90 q 276 532 333 276 q 185 76 251 392 q 125 14 175 31 q 33 20 75 -3 q 4 94 -8 43 q 77 463 21 174 q 172 906 133 751 q 235 958 182 944 q 313 943 289 972 q 390 797 360 897 q 445 569 421 696 q 488 392 469 443 q 613 694 514 449 q 640 779 624 718 q 678 883 657 840 q 732 947 699 926 q 810 960 761 974 q 867 907 858 947 q 883 829 876 871 q 895 755 890 788 q 906 674 900 722 q 913 599 911 625 q 920 517 915 572 q 928 442 925 463 z "},"N":{"ha":721,"x_min":15,"x_max":711,"o":"m 33 39 q 24 261 17 125 q 45 499 31 397 q 78 721 60 601 q 100 893 96 840 q 124 949 101 929 q 172 969 146 968 q 224 953 199 969 q 257 910 249 938 q 303 744 274 853 q 352 569 333 635 q 400 412 371 504 q 460 239 429 319 q 540 897 504 633 q 574 946 546 931 q 632 956 601 961 q 686 930 663 951 q 707 878 710 908 q 639 293 690 701 q 635 265 638 285 q 628 213 631 232 q 619 160 626 194 q 604 107 613 126 q 582 63 596 88 q 550 26 568 39 q 506 6 532 14 q 449 1 481 -3 q 308 121 346 11 q 261 273 290 174 q 221 410 232 372 q 214 292 218 383 q 201 140 210 201 q 172 43 193 79 q 126 4 158 17 q 66 1 94 -8 q 33 39 38 10 z "},"Ñ":{"ha":721,"x_min":15,"x_max":711,"o":"m 33 39 q 24 261 17 125 q 45 499 31 397 q 78 721 60 601 q 100 893 96 840 q 124 949 101 929 q 172 969 146 968 q 224 953 199 969 q 257 910 249 938 q 303 744 274 853 q 352 569 333 635 q 400 412 371 504 q 460 239 429 319 q 540 897 504 633 q 574 946 546 931 q 632 956 601 961 q 686 930 663 951 q 707 878 710 908 q 639 293 690 701 q 635 265 638 285 q 628 213 631 232 q 619 160 626 194 q 604 107 613 126 q 582 63 596 88 q 550 26 568 39 q 506 6 532 14 q 449 1 481 -3 q 308 121 346 11 q 261 273 290 174 q 221 410 232 372 q 214 292 218 383 q 201 140 210 201 q 172 43 193 79 q 126 4 158 17 q 66 1 94 -8 q 33 39 38 10 z "},"O":{"ha":706,"x_min":4,"x_max":699,"o":"m 621 874 q 678 745 660 818 q 695 597 697 672 q 675 443 693 522 q 622 296 657 364 q 540 169 588 228 q 433 76 493 111 q 306 29 374 42 q 163 42 239 17 q 47 133 85 65 q 8 284 11 196 q 28 463 4 372 q 83 632 53 554 q 150 779 114 710 q 233 899 174 849 q 362 965 293 949 q 503 960 431 982 q 621 874 575 938 m 436 349 q 484 489 468 418 q 494 636 500 560 q 453 772 488 713 q 385 804 419 814 q 331 746 350 794 q 319 665 314 708 q 341 583 325 621 q 383 513 357 546 q 367 426 410 461 q 272 415 324 393 q 221 463 240 428 q 210 249 179 338 q 301 197 236 172 q 361 239 329 208 q 436 349 407 285 z "},"Ò":{"ha":706,"x_min":4,"x_max":699,"o":"m 621 874 q 678 745 660 818 q 695 597 697 672 q 675 443 693 522 q 622 296 657 364 q 540 169 588 228 q 433 76 493 111 q 306 29 374 42 q 163 42 239 17 q 47 133 85 65 q 8 284 11 196 q 28 463 4 372 q 83 632 53 554 q 150 779 114 710 q 233 899 174 849 q 362 965 293 949 q 503 960 431 982 q 621 874 575 938 m 436 349 q 484 489 468 418 q 494 636 500 560 q 453 772 488 713 q 385 804 419 814 q 331 746 350 794 q 319 665 314 708 q 341 583 325 621 q 383 513 357 546 q 367 426 410 461 q 272 415 324 393 q 221 463 240 428 q 210 249 179 338 q 301 197 236 172 q 361 239 329 208 q 436 349 407 285 z "},"Ó":{"ha":706,"x_min":4,"x_max":699,"o":"m 621 874 q 678 745 660 818 q 695 597 697 672 q 675 443 693 522 q 622 296 657 364 q 540 169 588 228 q 433 76 493 111 q 306 29 374 42 q 163 42 239 17 q 47 133 85 65 q 8 284 11 196 q 28 463 4 372 q 83 632 53 554 q 150 779 114 710 q 233 899 174 849 q 362 965 293 949 q 503 960 431 982 q 621 874 575 938 m 436 349 q 484 489 468 418 q 494 636 500 560 q 453 772 488 713 q 385 804 419 814 q 331 746 350 794 q 319 665 314 708 q 341 583 325 621 q 383 513 357 546 q 367 426 410 461 q 272 415 324 393 q 221 463 240 428 q 210 249 179 338 q 301 197 236 172 q 361 239 329 208 q 436 349 407 285 z "},"Ô":{"ha":706,"x_min":4,"x_max":699,"o":"m 621 874 q 678 745 660 818 q 695 597 697 672 q 675 443 693 522 q 622 296 657 364 q 540 169 588 228 q 433 76 493 111 q 306 29 374 42 q 163 42 239 17 q 47 133 85 65 q 8 284 11 196 q 28 463 4 372 q 83 632 53 554 q 150 779 114 710 q 233 899 174 849 q 362 965 293 949 q 503 960 431 982 q 621 874 575 938 m 436 349 q 484 489 468 418 q 494 636 500 560 q 453 772 488 713 q 385 804 419 814 q 331 746 350 794 q 319 665 314 708 q 341 583 325 621 q 383 513 357 546 q 367 426 410 461 q 272 415 324 393 q 221 463 240 428 q 210 249 179 338 q 301 197 236 172 q 361 239 329 208 q 436 349 407 285 z "},"Õ":{"ha":706,"x_min":4,"x_max":699,"o":"m 621 874 q 678 745 660 818 q 695 597 697 672 q 675 443 693 522 q 622 296 657 364 q 540 169 588 228 q 433 76 493 111 q 306 29 374 42 q 163 42 239 17 q 47 133 85 65 q 8 284 11 196 q 28 463 4 372 q 83 632 53 554 q 150 779 114 710 q 233 899 174 849 q 362 965 293 949 q 503 960 431 982 q 621 874 575 938 m 436 349 q 484 489 468 418 q 494 636 500 560 q 453 772 488 713 q 385 804 419 814 q 331 746 350 794 q 319 665 314 708 q 341 583 325 621 q 383 513 357 546 q 367 426 410 461 q 272 415 324 393 q 221 463 240 428 q 210 249 179 338 q 301 197 236 172 q 361 239 329 208 q 436 349 407 285 z "},"Ö":{"ha":706,"x_min":4,"x_max":699,"o":"m 621 874 q 678 745 660 818 q 695 597 697 672 q 675 443 693 522 q 622 296 657 364 q 540 169 588 228 q 433 76 493 111 q 306 29 374 42 q 163 42 239 17 q 47 133 85 65 q 8 284 11 196 q 28 463 4 372 q 83 632 53 554 q 150 779 114 710 q 233 899 174 849 q 362 965 293 949 q 503 960 431 982 q 621 874 575 938 m 436 349 q 484 489 468 418 q 494 636 500 560 q 453 772 488 713 q 385 804 419 814 q 331 746 350 794 q 319 665 314 708 q 341 583 325 621 q 383 513 357 546 q 367 426 410 461 q 272 415 324 393 q 221 463 240 428 q 210 249 179 338 q 301 197 236 172 q 361 239 329 208 q 436 349 407 285 z "},"Ø":{"ha":706,"x_min":4,"x_max":699,"o":"m 621 874 q 678 745 660 818 q 695 597 697 672 q 675 443 693 522 q 622 296 657 364 q 540 169 588 228 q 433 76 493 111 q 306 29 374 42 q 163 42 239 17 q 47 133 85 65 q 8 284 11 196 q 28 463 4 372 q 83 632 53 554 q 150 779 114 710 q 233 899 174 849 q 362 965 293 949 q 503 960 431 982 q 621 874 575 938 m 436 349 q 484 489 468 418 q 494 636 500 560 q 453 772 488 713 q 385 804 419 814 q 331 746 350 794 q 319 665 314 708 q 341 583 325 621 q 383 513 357 546 q 367 426 410 461 q 272 415 324 393 q 221 463 240 428 q 210 249 179 338 q 301 197 236 172 q 361 239 329 208 q 436 349 407 285 z "},"P":{"ha":669,"x_min":-6,"x_max":696,"o":"m 149 946 q 521 932 361 1031 q 664 736 632 861 q 617 514 696 606 q 254 426 508 390 q 250 306 250 386 q 243 163 250 225 q 214 47 236 100 q 139 6 193 8 q 68 46 85 3 q 60 184 56 131 q 73 325 64 238 q 81 465 82 413 q 67 471 71 469 q 7 523 18 488 q 20 585 -4 558 q 89 611 44 613 q 114 876 99 767 q 113 916 104 896 q 149 946 121 936 m 488 685 q 474 772 492 738 q 424 817 456 806 q 351 833 392 829 q 268 831 310 838 q 260 578 265 753 q 488 685 475 547 z "},"Q":{"ha":718,"x_min":-29,"x_max":719,"o":"m 569 192 q 682 46 617 126 q 671 -24 718 1 q 581 -29 628 -47 q 560 -15 568 -24 q 456 86 506 32 q 292 32 383 36 q 124 76 200 28 q 21 213 47 124 q 144 794 -28 447 q 386 983 243 975 q 600 881 507 992 q 700 561 706 753 q 569 192 693 371 m 214 208 q 333 235 253 164 q 217 431 263 332 q 214 208 167 260 m 442 386 q 488 642 490 499 q 453 779 486 724 q 350 767 408 846 q 328 697 331 735 q 340 614 326 658 q 369 537 354 569 q 408 455 383 504 q 442 386 433 406 z "},"R":{"ha":679,"x_min":10,"x_max":679,"o":"m 497 949 q 604 872 561 921 q 663 769 647 824 q 672 659 679 715 q 634 558 664 603 q 547 485 604 514 q 415 457 489 457 q 469 349 429 429 q 538 217 510 269 q 594 114 565 165 q 578 40 622 64 q 493 44 536 19 q 467 68 476 54 q 356 242 433 126 q 239 426 278 358 q 229 306 232 383 q 218 164 226 228 q 188 47 210 100 q 113 6 167 8 q 42 46 58 3 q 35 159 32 92 q 45 275 38 226 q 62 391 53 324 q 72 506 71 458 q 71 506 71 506 q 31 533 47 514 q 13 574 15 553 q 16 613 10 594 q 41 643 22 632 q 88 650 60 654 q 117 881 104 794 q 206 969 96 944 q 438 969 314 993 q 497 949 479 961 m 489 692 q 481 775 499 742 q 430 819 464 808 q 353 835 396 831 q 269 832 310 839 q 256 614 265 742 q 489 692 467 581 z "},"S":{"ha":675,"x_min":-53,"x_max":674,"o":"m 300 565 q 420 582 365 583 q 515 558 475 581 q 582 503 554 536 q 619 426 610 471 q 623 334 628 381 q 593 236 618 288 q 526 140 568 185 q 422 40 481 78 q 304 -8 363 3 q 191 -3 246 -18 q 97 50 136 13 q 39 154 58 88 q 29 306 19 221 q 69 360 29 349 q 150 349 110 371 q 190 286 190 326 q 218 131 189 146 q 324 172 258 111 q 430 314 390 232 q 446 429 469 396 q 372 425 415 433 q 297 408 329 417 q 221 397 264 399 q 146 410 178 394 q 39 679 -53 521 q 290 886 106 794 q 571 968 451 968 q 640 952 615 965 q 668 917 664 939 q 667 871 672 896 q 646 815 663 846 q 613 757 629 783 q 578 701 597 731 q 551 656 560 672 q 510 632 539 635 q 456 641 482 629 q 416 675 431 653 q 413 721 401 697 q 442 783 425 747 q 288 690 392 778 q 186 565 182 603 q 300 565 190 531 z "},"T":{"ha":669,"x_min":-15,"x_max":686,"o":"m 619 957 q 669 935 651 951 q 685 897 686 918 q 675 854 685 875 q 644 818 665 833 q 594 800 622 803 q 396 797 522 794 q 342 160 392 593 q 340 140 342 158 q 337 115 338 121 q 333 92 336 110 q 326 68 329 75 q 318 47 324 61 q 307 28 313 33 q 292 14 301 22 q 272 4 282 6 q 247 3 261 3 q 214 8 232 3 q 167 40 189 15 q 147 89 146 64 q 235 799 178 428 q 44 801 106 799 q -14 849 -12 804 q 26 921 -14 892 q 65 938 44 935 q 172 946 94 939 q 290 956 249 953 q 394 962 331 958 q 513 964 458 965 q 619 957 567 963 z "},"U":{"ha":668,"x_min":8,"x_max":654,"o":"m 479 917 q 512 966 483 950 q 572 978 540 982 q 629 951 604 974 q 651 896 654 929 q 593 319 635 524 q 547 183 579 243 q 474 87 515 122 q 383 35 433 51 q 284 22 333 18 q 188 51 235 26 q 106 116 142 75 q 47 220 69 157 q 21 360 24 283 q 104 932 10 629 q 153 970 114 965 q 224 953 192 975 q 254 897 257 932 q 243 829 253 885 q 224 710 233 774 q 204 568 214 647 q 193 419 194 489 q 198 290 192 349 q 228 197 204 231 q 290 168 251 164 q 382 247 347 182 q 430 404 417 311 q 449 590 443 497 q 460 778 454 683 q 479 917 465 872 z "},"Ù":{"ha":668,"x_min":8,"x_max":654,"o":"m 479 917 q 512 966 483 950 q 572 978 540 982 q 629 951 604 974 q 651 896 654 929 q 593 319 635 524 q 547 183 579 243 q 474 87 515 122 q 383 35 433 51 q 284 22 333 18 q 188 51 235 26 q 106 116 142 75 q 47 220 69 157 q 21 360 24 283 q 104 932 10 629 q 153 970 114 965 q 224 953 192 975 q 254 897 257 932 q 243 829 253 885 q 224 710 233 774 q 204 568 214 647 q 193 419 194 489 q 198 290 192 349 q 228 197 204 231 q 290 168 251 164 q 382 247 347 182 q 430 404 417 311 q 449 590 443 497 q 460 778 454 683 q 479 917 465 872 z "},"Ú":{"ha":668,"x_min":8,"x_max":654,"o":"m 479 917 q 512 966 483 950 q 572 978 540 982 q 629 951 604 974 q 651 896 654 929 q 593 319 635 524 q 547 183 579 243 q 474 87 515 122 q 383 35 433 51 q 284 22 333 18 q 188 51 235 26 q 106 116 142 75 q 47 220 69 157 q 21 360 24 283 q 104 932 10 629 q 153 970 114 965 q 224 953 192 975 q 254 897 257 932 q 243 829 253 885 q 224 710 233 774 q 204 568 214 647 q 193 419 194 489 q 198 290 192 349 q 228 197 204 231 q 290 168 251 164 q 382 247 347 182 q 430 404 417 311 q 449 590 443 497 q 460 778 454 683 q 479 917 465 872 z "},"Û":{"ha":668,"x_min":8,"x_max":654,"o":"m 479 917 q 512 966 483 950 q 572 978 540 982 q 629 951 604 974 q 651 896 654 929 q 593 319 635 524 q 547 183 579 243 q 474 87 515 122 q 383 35 433 51 q 284 22 333 18 q 188 51 235 26 q 106 116 142 75 q 47 220 69 157 q 21 360 24 283 q 104 932 10 629 q 153 970 114 965 q 224 953 192 975 q 254 897 257 932 q 243 829 253 885 q 224 710 233 774 q 204 568 214 647 q 193 419 194 489 q 198 290 192 349 q 228 197 204 231 q 290 168 251 164 q 382 247 347 182 q 430 404 417 311 q 449 590 443 497 q 460 778 454 683 q 479 917 465 872 z "},"Ü":{"ha":668,"x_min":8,"x_max":654,"o":"m 479 917 q 512 966 483 950 q 572 978 540 982 q 629 951 604 974 q 651 896 654 929 q 593 319 635 524 q 547 183 579 243 q 474 87 515 122 q 383 35 433 51 q 284 22 333 18 q 188 51 235 26 q 106 116 142 75 q 47 220 69 157 q 21 360 24 283 q 104 932 10 629 q 153 970 114 965 q 224 953 192 975 q 254 897 257 932 q 243 829 253 885 q 224 710 233 774 q 204 568 214 647 q 193 419 194 489 q 198 290 192 349 q 228 197 204 231 q 290 168 251 164 q 382 247 347 182 q 430 404 417 311 q 449 590 443 497 q 460 778 454 683 q 479 917 465 872 z "},"V":{"ha":653,"x_min":6,"x_max":661,"o":"m 628 978 q 658 899 658 965 q 581 640 660 843 q 433 279 503 436 q 307 6 363 122 q 255 -32 292 -26 q 188 -17 218 -37 q 156 35 157 3 q 101 286 125 118 q 69 488 76 454 q 60 538 67 503 q 51 592 54 574 q 42 642 47 610 q 33 696 36 675 q 25 747 29 717 q 18 801 21 778 q 13 851 15 824 q 8 906 10 879 q 41 956 6 943 q 115 952 76 968 q 160 904 153 936 q 213 628 179 811 q 264 354 246 444 q 328 521 286 397 q 415 763 369 644 q 500 935 461 882 q 597 983 538 985 q 628 978 614 982 z "},"W":{"ha":1072,"x_min":7,"x_max":1083,"o":"m 940 964 q 999 978 967 981 q 1056 954 1031 976 q 1079 903 1082 932 q 1063 813 1075 860 q 1033 720 1050 765 q 997 633 1015 675 q 960 543 979 592 q 928 456 940 494 q 743 6 824 182 q 693 -33 729 -28 q 626 -17 657 -37 q 593 35 594 3 q 503 526 539 365 q 300 22 378 196 q 258 -18 289 -4 q 196 -29 226 -32 q 174 -21 185 -28 q 158 -6 164 -14 q 147 13 153 3 q 140 29 142 24 q 138 40 139 35 q 10 888 38 588 q 43 944 8 921 q 116 962 78 967 q 161 922 154 957 q 213 640 181 826 q 263 365 244 454 q 422 800 403 751 q 472 919 435 832 q 493 949 479 936 q 524 970 507 963 q 561 976 542 978 q 628 928 611 975 q 618 826 646 881 q 660 594 633 747 q 700 371 686 442 q 769 562 731 440 q 848 785 808 683 q 940 964 888 888 z "},"X":{"ha":775,"x_min":-24,"x_max":803,"o":"m 692 972 q 770 954 739 981 q 776 882 801 928 q 706 783 758 853 q 586 629 653 714 q 488 503 519 544 q 556 361 510 449 q 635 197 601 274 q 678 49 668 119 q 649 -2 678 14 q 585 -12 621 -18 q 531 15 550 -6 q 433 197 485 71 q 369 346 382 324 q 113 21 197 113 q 51 -3 90 -4 q -5 21 13 -1 q -4 81 -22 43 q 84 211 36 146 q 205 369 132 276 q 301 494 278 463 q 279 543 297 504 q 256 594 261 582 q 235 640 250 606 q 213 692 219 675 q 193 740 206 708 q 173 792 181 771 q 156 841 165 814 q 139 893 146 868 q 157 953 128 933 q 227 963 186 972 q 283 925 268 954 q 419 651 338 826 q 515 779 439 678 q 629 929 590 881 q 692 972 660 967 z "},"Y":{"ha":654,"x_min":-26,"x_max":678,"o":"m 525 949 q 581 984 542 976 q 649 974 621 992 q 664 918 678 956 q 620 803 644 860 q 562 675 596 746 q 510 569 528 604 q 449 450 492 535 q 488 374 482 410 q 465 322 493 339 q 381 317 436 306 q 339 240 365 293 q 288 142 313 188 q 233 50 264 96 q 166 -21 203 4 q 89 -40 129 -46 q 47 -12 64 -35 q 42 33 31 10 q 106 168 68 99 q 194 323 144 238 q 269 453 244 408 q 224 522 261 465 q 174 598 186 579 q 131 665 163 617 q 83 742 100 713 q 44 811 67 771 q 3 888 21 851 q 24 965 -26 944 q 113 956 68 983 q 135 935 126 947 q 350 610 222 821 q 525 949 478 865 z "},"Ý":{"ha":654,"x_min":-26,"x_max":678,"o":"m 525 949 q 581 984 542 976 q 649 974 621 992 q 664 918 678 956 q 620 803 644 860 q 562 675 596 746 q 510 569 528 604 q 449 450 492 535 q 488 374 482 410 q 465 322 493 339 q 381 317 436 306 q 339 240 365 293 q 288 142 313 188 q 233 50 264 96 q 166 -21 203 4 q 89 -40 129 -46 q 47 -12 64 -35 q 42 33 31 10 q 106 168 68 99 q 194 323 144 238 q 269 453 244 408 q 224 522 261 465 q 174 598 186 579 q 131 665 163 617 q 83 742 100 713 q 44 811 67 771 q 3 888 21 851 q 24 965 -26 944 q 113 956 68 983 q 135 935 126 947 q 350 610 222 821 q 525 949 478 865 z "},"Ÿ":{"ha":654,"x_min":-26,"x_max":678,"o":"m 525 949 q 581 984 542 976 q 649 974 621 992 q 664 918 678 956 q 620 803 644 860 q 562 675 596 746 q 510 569 528 604 q 449 450 492 535 q 488 374 482 410 q 465 322 493 339 q 381 317 436 306 q 339 240 365 293 q 288 142 313 188 q 233 50 264 96 q 166 -21 203 4 q 89 -40 129 -46 q 47 -12 64 -35 q 42 33 31 10 q 106 168 68 99 q 194 323 144 238 q 269 453 244 408 q 224 522 261 465 q 174 598 186 579 q 131 665 163 617 q 83 742 100 713 q 44 811 67 771 q 3 888 21 851 q 24 965 -26 944 q 113 956 68 983 q 135 935 126 947 q 350 610 222 821 q 525 949 478 865 z "},"Z":{"ha":782,"x_min":-12,"x_max":803,"o":"m 740 939 q 793 904 783 933 q 781 846 803 875 q 725 811 760 817 q 676 735 701 774 q 624 656 651 696 q 573 583 596 615 q 517 506 550 550 q 463 434 483 461 q 406 358 443 407 q 351 288 368 310 q 292 213 333 265 q 236 142 251 161 q 588 129 338 140 q 656 92 635 128 q 658 24 676 57 q 588 -7 639 -8 q 494 -3 563 -6 q 390 0 425 -1 q 298 3 354 1 q 194 6 242 4 q 99 8 146 7 l 72 10 q 9 36 29 15 q -8 83 -11 57 q 10 138 -6 110 q 51 190 26 165 q 529 806 397 625 q 346 809 479 808 q 140 813 213 810 q 88 857 90 815 q 122 924 85 897 q 158 936 139 935 q 301 939 204 936 q 454 942 397 942 q 592 942 511 943 q 740 939 674 942 z "},"[":{"ha":282,"x_min":26,"x_max":426,"o":"m 425 1035 q 408 999 422 1013 q 374 983 394 986 q 333 981 353 981 q 287 985 313 982 q 249 986 261 988 q 224 462 250 813 q 200 -68 197 111 q 290 -69 254 -64 q 344 -99 319 -75 q 367 -152 368 -124 q 328 -193 365 -181 q 292 -201 318 -196 q 248 -210 265 -207 q 203 -217 231 -214 q 158 -220 176 -221 q 116 -216 139 -219 q 78 -203 93 -212 q 52 -178 64 -194 q 35 -137 40 -161 q 38 236 28 39 q 68 681 47 433 q 96 1054 89 929 q 116 1090 100 1075 q 155 1110 132 1104 q 204 1117 178 1115 q 256 1117 231 1119 q 303 1113 282 1115 q 338 1108 325 1111 l 351 1106 q 401 1083 378 1104 q 425 1035 425 1061 z "},"\\":{"ha":824,"x_min":65,"x_max":764,"o":"m 746 107 q 751 53 764 78 q 713 14 738 29 q 659 1 689 -1 q 614 26 629 3 q 444 285 582 76 q 220 627 306 494 q 81 851 135 760 q 71 900 67 876 q 96 940 75 924 q 140 965 117 957 q 189 968 164 974 q 226 942 214 963 q 746 107 499 513 z "},"]":{"ha":283,"x_min":-149,"x_max":256,"o":"m 158 1121 q 229 1083 206 1129 q 253 956 253 1036 q 248 794 254 875 q 233 633 242 713 q 228 528 225 553 q 208 224 222 465 q 181 -146 194 -17 q 155 -194 181 -176 q 92 -213 129 -211 q 17 -214 54 -215 q -47 -208 -21 -212 l -74 -203 q -124 -181 -100 -201 q -147 -133 -147 -160 q -134 -101 -144 -114 q -110 -85 -124 -89 q -76 -79 -96 -81 q -40 -80 -57 -78 q -2 -83 -22 -82 q 29 -83 18 -85 q 56 434 29 82 q 78 971 82 786 q -32 972 10 965 q -81 1003 -68 978 q -79 1057 -93 1029 q -32 1096 -65 1085 q 15 1106 -12 1101 q 60 1113 43 1111 q 113 1117 76 1115 q 158 1121 149 1119 z "},"^":{"ha":383,"x_min":11,"x_max":367,"o":"m 365 543 q 358 520 367 531 q 338 506 350 510 q 314 501 326 501 q 258 529 278 503 q 221 603 238 556 q 196 667 204 651 q 99 506 150 536 q 58 499 78 494 q 24 523 38 504 q 14 564 11 542 q 90 736 22 618 q 165 872 158 854 q 232 900 185 904 q 275 867 274 896 q 269 843 275 854 q 365 543 346 701 z "},"_":{"ha":706,"x_min":11,"x_max":699,"o":"m 651 111 q 691 86 685 108 q 681 42 697 64 q 638 17 664 19 q 457 8 551 8 q 233 12 363 7 q 53 17 104 17 q 13 53 13 18 q 43 104 13 88 q 67 111 54 110 q 248 116 119 111 q 471 121 376 121 q 651 111 565 121 z "},"`":{"ha":182,"x_min":11,"x_max":169,"o":"m 164 738 q 147 691 169 711 q 95 672 124 671 q 58 701 67 674 q 18 861 53 718 q 34 908 11 888 q 86 926 57 928 q 122 897 115 924 q 164 738 161 756 z "},"a":{"ha":694,"x_min":8,"x_max":743,"o":"m 635 461 q 622 318 743 410 q 590 69 607 174 q 559 24 585 40 q 504 6 533 7 q 450 22 475 6 q 421 68 425 38 q 418 154 417 107 q 92 97 206 3 q 13 328 8 165 q 106 622 17 494 q 379 757 214 776 q 515 710 444 749 q 569 742 533 733 q 632 737 604 750 q 657 690 660 724 q 635 461 650 624 m 450 390 q 483 582 472 529 q 344 610 404 631 q 244 527 283 589 q 190 388 206 465 q 182 244 174 310 q 183 237 182 242 q 187 223 185 232 q 193 209 189 214 q 203 207 197 204 q 278 260 231 222 q 346 311 326 299 q 450 390 385 340 z "},"à":{"ha":694,"x_min":8,"x_max":743,"o":"m 635 461 q 622 318 743 410 q 590 69 607 174 q 559 24 585 40 q 504 6 533 7 q 450 22 475 6 q 421 68 425 38 q 418 154 417 107 q 92 97 206 3 q 13 328 8 165 q 106 622 17 494 q 379 757 214 776 q 515 710 444 749 q 569 742 533 733 q 632 737 604 750 q 657 690 660 724 q 635 461 650 624 m 450 390 q 483 582 472 529 q 344 610 404 631 q 244 527 283 589 q 190 388 206 465 q 182 244 174 310 q 183 237 182 242 q 187 223 185 232 q 193 209 189 214 q 203 207 197 204 q 278 260 231 222 q 346 311 326 299 q 450 390 385 340 z "},"á":{"ha":694,"x_min":8,"x_max":743,"o":"m 635 461 q 622 318 743 410 q 590 69 607 174 q 559 24 585 40 q 504 6 533 7 q 450 22 475 6 q 421 68 425 38 q 418 154 417 107 q 92 97 206 3 q 13 328 8 165 q 106 622 17 494 q 379 757 214 776 q 515 710 444 749 q 569 742 533 733 q 632 737 604 750 q 657 690 660 724 q 635 461 650 624 m 450 390 q 483 582 472 529 q 344 610 404 631 q 244 527 283 589 q 190 388 206 465 q 182 244 174 310 q 183 237 182 242 q 187 223 185 232 q 193 209 189 214 q 203 207 197 204 q 278 260 231 222 q 346 311 326 299 q 450 390 385 340 z "},"â":{"ha":694,"x_min":8,"x_max":743,"o":"m 635 461 q 622 318 743 410 q 590 69 607 174 q 559 24 585 40 q 504 6 533 7 q 450 22 475 6 q 421 68 425 38 q 418 154 417 107 q 92 97 206 3 q 13 328 8 165 q 106 622 17 494 q 379 757 214 776 q 515 710 444 749 q 569 742 533 733 q 632 737 604 750 q 657 690 660 724 q 635 461 650 624 m 450 390 q 483 582 472 529 q 344 610 404 631 q 244 527 283 589 q 190 388 206 465 q 182 244 174 310 q 183 237 182 242 q 187 223 185 232 q 193 209 189 214 q 203 207 197 204 q 278 260 231 222 q 346 311 326 299 q 450 390 385 340 z "},"ã":{"ha":694,"x_min":8,"x_max":743,"o":"m 635 461 q 622 318 743 410 q 590 69 607 174 q 559 24 585 40 q 504 6 533 7 q 450 22 475 6 q 421 68 425 38 q 418 154 417 107 q 92 97 206 3 q 13 328 8 165 q 106 622 17 494 q 379 757 214 776 q 515 710 444 749 q 569 742 533 733 q 632 737 604 750 q 657 690 660 724 q 635 461 650 624 m 450 390 q 483 582 472 529 q 344 610 404 631 q 244 527 283 589 q 190 388 206 465 q 182 244 174 310 q 183 237 182 242 q 187 223 185 232 q 193 209 189 214 q 203 207 197 204 q 278 260 231 222 q 346 311 326 299 q 450 390 385 340 z "},"ä":{"ha":694,"x_min":8,"x_max":743,"o":"m 635 461 q 622 318 743 410 q 590 69 607 174 q 559 24 585 40 q 504 6 533 7 q 450 22 475 6 q 421 68 425 38 q 418 154 417 107 q 92 97 206 3 q 13 328 8 165 q 106 622 17 494 q 379 757 214 776 q 515 710 444 749 q 569 742 533 733 q 632 737 604 750 q 657 690 660 724 q 635 461 650 624 m 450 390 q 483 582 472 529 q 344 610 404 631 q 244 527 283 589 q 190 388 206 465 q 182 244 174 310 q 183 237 182 242 q 187 223 185 232 q 193 209 189 214 q 203 207 197 204 q 278 260 231 222 q 346 311 326 299 q 450 390 385 340 z "},"å":{"ha":694,"x_min":8,"x_max":743,"o":"m 635 461 q 622 318 743 410 q 590 69 607 174 q 559 24 585 40 q 504 6 533 7 q 450 22 475 6 q 421 68 425 38 q 418 154 417 107 q 92 97 206 3 q 13 328 8 165 q 106 622 17 494 q 379 757 214 776 q 515 710 444 749 q 569 742 533 733 q 632 737 604 750 q 657 690 660 724 q 635 461 650 624 m 450 390 q 483 582 472 529 q 344 610 404 631 q 244 527 283 589 q 190 388 206 465 q 182 244 174 310 q 183 237 182 242 q 187 223 185 232 q 193 209 189 214 q 203 207 197 204 q 278 260 231 222 q 346 311 326 299 q 450 390 385 340 z "},"b":{"ha":699,"x_min":-6,"x_max":694,"o":"m 290 701 q 610 683 499 806 q 685 415 694 590 q 585 128 676 242 q 301 39 472 -14 q 217 75 260 51 q 176 25 210 44 q 108 12 143 6 q 60 51 72 18 q 56 81 57 65 q 56 113 54 97 q 60 143 57 129 q 65 174 63 157 q 68 204 68 192 q 3 318 -6 275 q 32 365 7 350 q 89 372 57 379 q 110 553 99 444 q 134 761 122 663 q 158 942 146 860 q 179 976 163 961 q 217 994 196 990 q 260 997 239 999 q 296 980 282 994 q 310 943 310 965 q 290 701 307 860 m 244 253 q 428 225 346 132 q 504 436 489 297 q 496 563 511 513 q 480 597 490 585 q 457 612 469 610 q 431 613 444 614 q 400 600 417 611 q 369 580 383 589 q 338 554 356 571 q 310 527 321 538 q 285 501 300 517 q 267 483 271 486 q 256 383 265 468 q 244 253 247 299 z "},"c":{"ha":674,"x_min":-26,"x_max":674,"o":"m 482 300 q 560 344 493 350 q 654 294 622 338 q 667 242 674 269 q 603 114 647 168 q 494 28 560 60 q 347 -6 428 -3 q 33 171 104 8 q 47 469 -25 303 q 251 708 115 625 q 493 764 368 779 q 581 737 535 765 q 613 668 626 708 q 582 567 601 640 q 547 458 563 494 q 518 434 539 440 q 474 434 497 428 q 428 453 450 440 q 395 485 407 465 q 390 525 383 504 q 407 597 397 551 q 327 556 364 581 q 262 499 290 532 q 215 425 233 467 q 190 336 196 383 q 188 274 186 310 q 196 205 190 238 q 226 152 201 172 q 292 136 251 132 q 416 184 367 139 q 482 300 465 229 z "},"ç":{"ha":674,"x_min":-26,"x_max":674,"o":"m 482 300 q 560 344 493 350 q 654 294 622 338 q 667 242 674 269 q 603 114 647 168 q 494 28 560 60 q 347 -6 428 -3 q 33 171 104 8 q 47 469 -25 303 q 251 708 115 625 q 493 764 368 779 q 581 737 535 765 q 613 668 626 708 q 582 567 601 640 q 547 458 563 494 q 518 434 539 440 q 474 434 497 428 q 428 453 450 440 q 395 485 407 465 q 390 525 383 504 q 407 597 397 551 q 327 556 364 581 q 262 499 290 532 q 215 425 233 467 q 190 336 196 383 q 188 274 186 310 q 196 205 190 238 q 226 152 201 172 q 292 136 251 132 q 416 184 367 139 q 482 300 465 229 z "},"d":{"ha":700,"x_min":7,"x_max":683,"o":"m 646 317 q 674 282 669 306 q 668 236 679 258 q 639 199 657 214 q 629 90 633 108 q 625 75 628 85 q 604 46 622 65 q 558 17 586 26 q 491 21 521 4 q 461 76 461 38 q 340 35 403 42 q 221 49 276 28 q 120 109 165 69 q 47 207 75 149 q 17 331 19 265 q 19 479 7 407 q 60 607 31 551 q 138 699 90 663 q 240 747 185 736 q 365 735 296 757 q 503 654 433 713 q 529 939 514 836 q 588 1004 536 983 q 671 994 643 1026 q 682 957 682 979 q 665 604 682 833 q 646 317 649 375 m 475 269 q 488 449 482 367 q 458 486 471 471 q 426 525 446 501 q 389 562 406 549 q 352 589 372 575 q 315 604 332 603 q 280 601 297 606 q 247 575 263 596 q 221 519 232 554 q 203 422 204 475 q 231 267 199 331 q 324 194 263 203 q 475 269 385 186 z "},"e":{"ha":769,"x_min":-18,"x_max":765,"o":"m 600 297 q 655 330 614 321 q 728 322 696 339 q 751 268 761 306 q 692 146 743 200 q 572 62 642 92 q 420 28 501 32 q 270 48 339 25 q 153 133 201 71 q 100 285 106 194 q -3 331 17 278 q 19 406 -17 372 q 114 426 56 439 q 162 561 128 499 q 247 673 196 624 q 369 747 297 722 q 524 764 442 772 q 732 653 683 746 q 735 487 765 557 q 626 371 704 417 q 458 303 547 325 q 281 281 368 281 q 321 196 289 224 q 393 172 353 168 q 476 194 433 176 q 552 242 518 213 q 600 297 586 271 m 554 519 q 546 615 596 588 q 422 607 497 643 q 293 440 321 558 l 289 421 q 554 519 479 428 z "},"è":{"ha":769,"x_min":-18,"x_max":765,"o":"m 600 297 q 655 330 614 321 q 728 322 696 339 q 751 268 761 306 q 692 146 743 200 q 572 62 642 92 q 420 28 501 32 q 270 48 339 25 q 153 133 201 71 q 100 285 106 194 q -3 331 17 278 q 19 406 -17 372 q 114 426 56 439 q 162 561 128 499 q 247 673 196 624 q 369 747 297 722 q 524 764 442 772 q 732 653 683 746 q 735 487 765 557 q 626 371 704 417 q 458 303 547 325 q 281 281 368 281 q 321 196 289 224 q 393 172 353 168 q 476 194 433 176 q 552 242 518 213 q 600 297 586 271 m 554 519 q 546 615 596 588 q 422 607 497 643 q 293 440 321 558 l 289 421 q 554 519 479 428 z "},"é":{"ha":769,"x_min":-18,"x_max":765,"o":"m 600 297 q 655 330 614 321 q 728 322 696 339 q 751 268 761 306 q 692 146 743 200 q 572 62 642 92 q 420 28 501 32 q 270 48 339 25 q 153 133 201 71 q 100 285 106 194 q -3 331 17 278 q 19 406 -17 372 q 114 426 56 439 q 162 561 128 499 q 247 673 196 624 q 369 747 297 722 q 524 764 442 772 q 732 653 683 746 q 735 487 765 557 q 626 371 704 417 q 458 303 547 325 q 281 281 368 281 q 321 196 289 224 q 393 172 353 168 q 476 194 433 176 q 552 242 518 213 q 600 297 586 271 m 554 519 q 546 615 596 588 q 422 607 497 643 q 293 440 321 558 l 289 421 q 554 519 479 428 z "},"ê":{"ha":769,"x_min":-18,"x_max":765,"o":"m 600 297 q 655 330 614 321 q 728 322 696 339 q 751 268 761 306 q 692 146 743 200 q 572 62 642 92 q 420 28 501 32 q 270 48 339 25 q 153 133 201 71 q 100 285 106 194 q -3 331 17 278 q 19 406 -17 372 q 114 426 56 439 q 162 561 128 499 q 247 673 196 624 q 369 747 297 722 q 524 764 442 772 q 732 653 683 746 q 735 487 765 557 q 626 371 704 417 q 458 303 547 325 q 281 281 368 281 q 321 196 289 224 q 393 172 353 168 q 476 194 433 176 q 552 242 518 213 q 600 297 586 271 m 554 519 q 546 615 596 588 q 422 607 497 643 q 293 440 321 558 l 289 421 q 554 519 479 428 z "},"ë":{"ha":769,"x_min":-18,"x_max":765,"o":"m 600 297 q 655 330 614 321 q 728 322 696 339 q 751 268 761 306 q 692 146 743 200 q 572 62 642 92 q 420 28 501 32 q 270 48 339 25 q 153 133 201 71 q 100 285 106 194 q -3 331 17 278 q 19 406 -17 372 q 114 426 56 439 q 162 561 128 499 q 247 673 196 624 q 369 747 297 722 q 524 764 442 772 q 732 653 683 746 q 735 487 765 557 q 626 371 704 417 q 458 303 547 325 q 281 281 368 281 q 321 196 289 224 q 393 172 353 168 q 476 194 433 176 q 552 242 518 213 q 600 297 586 271 m 554 519 q 546 615 596 588 q 422 607 497 643 q 293 440 321 558 l 289 421 q 554 519 479 428 z "},"f":{"ha":560,"x_min":-8,"x_max":607,"o":"m 547 735 q 474 699 529 682 q 404 760 425 714 q 407 831 388 796 q 326 640 349 760 q 483 647 350 642 q 556 615 536 649 q 553 544 575 581 q 483 507 532 508 q 314 501 349 501 q 297 245 311 411 q 281 46 283 79 q 260 3 279 18 q 217 -13 242 -12 q 169 -6 193 -14 q 128 21 144 1 q 115 64 113 40 q 139 499 119 128 q 49 499 89 499 q -6 543 -3 504 q 43 611 -8 583 q 149 631 86 635 q 184 774 156 704 q 259 901 213 844 q 375 988 306 957 q 522 1013 444 1019 q 581 982 557 1010 q 599 919 606 954 q 573 826 590 888 q 547 735 556 765 z "},"g":{"ha":738,"x_min":-26,"x_max":743,"o":"m 650 463 q 722 422 701 446 q 734 369 743 397 q 700 315 725 342 q 638 265 675 289 q 628 147 631 225 q 621 1 625 68 q 604 -135 617 -65 q 557 -255 592 -206 q 467 -322 522 -304 q 351 -310 415 -335 q 230 -243 286 -286 q 126 -156 174 -200 q 49 -78 78 -111 l 21 -44 q 14 42 -25 4 q 101 58 50 74 q 138 36 122 51 q 211 -25 174 10 q 273 -85 249 -60 q 322 -135 297 -111 q 362 -171 347 -160 q 392 -181 376 -182 q 416 -163 407 -181 q 433 -106 425 -146 q 445 -6 440 -67 q 454 147 450 56 q 310 85 381 99 q 189 90 240 71 q 101 156 138 110 q 60 275 65 203 q 75 440 54 347 q 119 563 90 504 q 188 669 147 622 q 276 740 229 717 q 383 749 324 763 q 504 682 443 736 q 541 744 503 728 q 618 741 579 761 q 658 679 657 721 q 650 463 658 590 m 471 354 q 485 503 478 433 q 472 517 481 507 q 456 536 463 528 q 438 556 449 544 q 419 574 428 567 q 399 590 410 582 q 380 601 389 597 q 361 604 371 604 q 344 599 351 604 q 264 458 313 588 q 226 249 207 304 q 258 232 235 225 q 471 354 351 264 z "},"h":{"ha":651,"x_min":3,"x_max":629,"o":"m 293 739 q 423 765 365 764 q 517 747 481 765 q 577 692 553 729 q 613 612 601 656 q 626 510 624 568 q 625 401 629 453 q 613 289 621 350 q 594 79 603 151 q 568 30 590 49 q 517 10 546 11 q 459 19 488 10 q 413 51 431 28 q 399 103 396 74 q 423 311 403 135 q 450 582 443 488 q 451 597 450 583 q 451 619 451 610 q 449 628 450 628 q 375 610 431 631 q 281 568 319 589 q 263 405 278 546 q 236 181 249 264 q 208 60 224 99 q 185 18 204 33 q 141 2 165 3 q 93 9 117 1 q 56 35 69 17 q 44 78 42 54 q 64 250 53 135 q 83 421 75 365 q 22 449 40 429 q 7 491 3 468 q 28 542 11 514 q 67 591 46 569 q 113 632 89 613 q 143 919 133 799 q 160 959 144 944 q 199 974 176 974 q 243 967 221 974 q 281 942 265 960 q 296 901 296 924 q 293 739 297 826 z "},"i":{"ha":243,"x_min":25,"x_max":261,"o":"m 243 894 q 201 808 261 828 q 94 824 147 790 q 51 897 50 851 q 81 953 54 935 q 142 970 108 972 q 206 947 175 968 q 243 894 236 926 m 60 708 q 77 748 61 733 q 115 763 93 763 q 158 756 136 764 q 195 731 179 749 q 213 690 211 713 q 181 49 221 418 q 140 10 175 17 q 72 22 106 4 q 35 65 39 39 q 28 226 25 128 q 35 387 31 324 q 48 548 40 450 q 60 708 56 646 z "},"ì":{"ha":243,"x_min":25,"x_max":261,"o":"m 243 894 q 201 808 261 828 q 94 824 147 790 q 51 897 50 851 q 81 953 54 935 q 142 970 108 972 q 206 947 175 968 q 243 894 236 926 m 60 708 q 77 748 61 733 q 115 763 93 763 q 158 756 136 764 q 195 731 179 749 q 213 690 211 713 q 181 49 221 418 q 140 10 175 17 q 72 22 106 4 q 35 65 39 39 q 28 226 25 128 q 35 387 31 324 q 48 548 40 450 q 60 708 56 646 z "},"í":{"ha":243,"x_min":25,"x_max":261,"o":"m 243 894 q 201 808 261 828 q 94 824 147 790 q 51 897 50 851 q 81 953 54 935 q 142 970 108 972 q 206 947 175 968 q 243 894 236 926 m 60 708 q 77 748 61 733 q 115 763 93 763 q 158 756 136 764 q 195 731 179 749 q 213 690 211 713 q 181 49 221 418 q 140 10 175 17 q 72 22 106 4 q 35 65 39 39 q 28 226 25 128 q 35 387 31 324 q 48 548 40 450 q 60 708 56 646 z "},"î":{"ha":243,"x_min":25,"x_max":261,"o":"m 243 894 q 201 808 261 828 q 94 824 147 790 q 51 897 50 851 q 81 953 54 935 q 142 970 108 972 q 206 947 175 968 q 243 894 236 926 m 60 708 q 77 748 61 733 q 115 763 93 763 q 158 756 136 764 q 195 731 179 749 q 213 690 211 713 q 181 49 221 418 q 140 10 175 17 q 72 22 106 4 q 35 65 39 39 q 28 226 25 128 q 35 387 31 324 q 48 548 40 450 q 60 708 56 646 z "},"ï":{"ha":243,"x_min":25,"x_max":261,"o":"m 243 894 q 201 808 261 828 q 94 824 147 790 q 51 897 50 851 q 81 953 54 935 q 142 970 108 972 q 206 947 175 968 q 243 894 236 926 m 60 708 q 77 748 61 733 q 115 763 93 763 q 158 756 136 764 q 195 731 179 749 q 213 690 211 713 q 181 49 221 418 q 140 10 175 17 q 72 22 106 4 q 35 65 39 39 q 28 226 25 128 q 35 387 31 324 q 48 548 40 450 q 60 708 56 646 z "},"j":{"ha":249,"x_min":-283,"x_max":240,"o":"m 222 894 q 181 808 240 828 q 74 824 126 790 q 31 897 29 851 q 60 953 33 935 q 121 970 88 972 q 185 947 154 968 q 222 894 215 926 m 60 722 q 123 749 78 751 q 193 715 168 746 q 219 649 214 690 q 219 538 225 607 q 213 467 213 468 q 197 -37 208 213 q 160 -231 193 -156 q 71 -330 126 -306 q -66 -317 15 -354 q -244 -181 -147 -281 q -250 -111 -283 -142 q -172 -97 -218 -82 q -146 -112 -158 -103 q 6 -217 -76 -179 q 32 20 25 -106 q 39 306 39 146 q 42 547 39 467 q 39 597 42 550 q 40 674 36 644 q 60 722 44 703 z "},"k":{"ha":658,"x_min":-1,"x_max":676,"o":"m 653 738 q 644 653 675 693 q 583 597 622 624 q 506 552 543 569 q 423 512 468 535 q 351 468 378 489 q 408 372 369 438 q 471 267 447 306 q 528 175 494 229 q 593 75 563 121 q 576 4 625 25 q 488 10 533 -15 q 465 29 474 18 q 346 194 422 90 q 243 335 269 299 q 239 274 240 307 q 236 204 238 240 q 233 143 235 168 q 214 25 228 44 q 165 -4 196 -1 q 106 9 133 -7 q 69 51 78 25 q 64 120 63 86 q 71 228 65 154 q 76 326 76 303 q 16 353 33 335 q 6 394 -1 372 q 33 440 13 417 q 86 479 54 463 q 92 626 89 529 q 101 801 96 724 q 119 947 107 879 q 162 988 125 985 q 233 968 199 992 q 269 914 268 944 q 258 592 275 815 q 324 633 276 600 q 416 696 371 667 q 510 750 461 725 q 597 774 558 775 q 653 738 635 772 z "},"l":{"ha":249,"x_min":25,"x_max":231,"o":"m 79 947 q 123 988 86 985 q 194 968 160 992 q 231 914 229 944 q 210 526 231 785 q 190 138 190 267 q 182 60 190 96 q 165 15 174 24 q 94 -1 138 -11 q 33 44 50 10 q 29 58 29 50 q 79 947 26 426 z "},"m":{"ha":1044,"x_min":3,"x_max":1024,"o":"m 589 692 q 724 751 663 731 q 828 769 785 772 q 906 755 871 765 q 960 708 940 744 q 996 640 981 671 q 1015 551 1011 610 q 1020 454 1018 493 q 1017 345 1022 415 q 1008 238 1013 275 q 997 132 1004 201 q 990 79 993 97 q 965 30 988 49 q 913 10 942 11 q 856 19 883 10 q 810 51 828 28 q 794 103 792 74 q 831 422 822 340 q 842 513 832 433 q 846 628 851 593 q 631 533 774 638 q 629 444 631 490 q 624 349 628 397 q 616 263 619 301 q 608 169 613 224 q 600 79 603 114 q 574 30 596 49 q 522 10 551 11 q 464 19 492 10 q 418 51 436 28 q 404 103 400 74 q 444 467 435 375 q 454 628 457 585 q 257 549 379 631 q 250 458 256 538 q 241 341 244 379 q 231 240 238 303 q 216 138 224 178 q 199 78 208 99 q 133 10 192 31 q 47 18 75 -10 q 35 60 32 33 q 52 230 40 104 q 74 424 64 356 q 17 460 31 436 q 17 512 3 483 q 49 564 31 540 q 94 613 68 588 q 107 742 103 686 q 171 810 117 796 q 251 789 224 824 q 261 725 271 764 q 376 760 315 751 q 495 753 436 769 q 589 692 554 738 z "},"n":{"ha":656,"x_min":8,"x_max":635,"o":"m 261 725 q 400 763 339 757 q 502 756 461 769 q 571 708 543 742 q 613 630 599 674 q 631 528 626 586 q 631 413 635 469 q 618 289 628 356 q 600 79 607 151 q 574 30 596 49 q 522 10 551 11 q 465 19 493 10 q 418 51 436 28 q 404 103 400 74 q 431 328 407 132 q 454 628 454 525 q 258 549 379 631 q 253 483 257 536 q 248 402 250 429 q 241 323 246 375 q 233 239 236 271 q 224 168 229 207 q 212 102 218 129 q 199 60 206 75 q 175 18 194 33 q 131 2 156 3 q 84 9 107 1 q 47 35 61 17 q 35 78 32 54 q 51 243 42 125 q 71 424 61 361 q 23 453 38 435 q 10 490 8 471 q 26 533 13 510 q 56 574 40 556 q 93 610 72 592 q 107 760 101 697 q 126 799 110 785 q 164 814 142 814 q 208 807 186 814 q 244 782 229 800 q 261 742 260 764 q 261 733 261 739 q 261 725 261 726 z "},"ñ":{"ha":656,"x_min":8,"x_max":635,"o":"m 261 725 q 400 763 339 757 q 502 756 461 769 q 571 708 543 742 q 613 630 599 674 q 631 528 626 586 q 631 413 635 469 q 618 289 628 356 q 600 79 607 151 q 574 30 596 49 q 522 10 551 11 q 465 19 493 10 q 418 51 436 28 q 404 103 400 74 q 431 328 407 132 q 454 628 454 525 q 258 549 379 631 q 253 483 257 536 q 248 402 250 429 q 241 323 246 375 q 233 239 236 271 q 224 168 229 207 q 212 102 218 129 q 199 60 206 75 q 175 18 194 33 q 131 2 156 3 q 84 9 107 1 q 47 35 61 17 q 35 78 32 54 q 51 243 42 125 q 71 424 61 361 q 23 453 38 435 q 10 490 8 471 q 26 533 13 510 q 56 574 40 556 q 93 610 72 592 q 107 760 101 697 q 126 799 110 785 q 164 814 142 814 q 208 807 186 814 q 244 782 229 800 q 261 742 260 764 q 261 733 261 739 q 261 725 261 726 z "},"o":{"ha":679,"x_min":8,"x_max":674,"o":"m 306 760 q 526 730 436 783 q 644 579 617 676 q 663 376 672 482 q 589 177 654 269 q 424 50 524 85 q 234 19 313 11 q 104 66 156 28 q 31 170 53 104 q 11 311 8 236 q 44 468 14 386 q 128 621 75 550 q 172 685 143 656 q 234 732 200 714 q 306 760 268 750 m 424 244 q 477 353 458 286 q 488 490 496 419 q 435 599 479 560 q 304 601 338 654 q 313 488 276 558 q 372 417 335 446 q 365 329 413 365 q 258 310 321 294 q 194 353 218 321 q 182 250 176 292 q 214 190 188 208 q 274 169 240 171 q 349 188 308 168 q 424 244 390 208 z "},"ò":{"ha":679,"x_min":8,"x_max":674,"o":"m 306 760 q 526 730 436 783 q 644 579 617 676 q 663 376 672 482 q 589 177 654 269 q 424 50 524 85 q 234 19 313 11 q 104 66 156 28 q 31 170 53 104 q 11 311 8 236 q 44 468 14 386 q 128 621 75 550 q 172 685 143 656 q 234 732 200 714 q 306 760 268 750 m 424 244 q 477 353 458 286 q 488 490 496 419 q 435 599 479 560 q 304 601 338 654 q 313 488 276 558 q 372 417 335 446 q 365 329 413 365 q 258 310 321 294 q 194 353 218 321 q 182 250 176 292 q 214 190 188 208 q 274 169 240 171 q 349 188 308 168 q 424 244 390 208 z "},"ó":{"ha":679,"x_min":8,"x_max":674,"o":"m 306 760 q 526 730 436 783 q 644 579 617 676 q 663 376 672 482 q 589 177 654 269 q 424 50 524 85 q 234 19 313 11 q 104 66 156 28 q 31 170 53 104 q 11 311 8 236 q 44 468 14 386 q 128 621 75 550 q 172 685 143 656 q 234 732 200 714 q 306 760 268 750 m 424 244 q 477 353 458 286 q 488 490 496 419 q 435 599 479 560 q 304 601 338 654 q 313 488 276 558 q 372 417 335 446 q 365 329 413 365 q 258 310 321 294 q 194 353 218 321 q 182 250 176 292 q 214 190 188 208 q 274 169 240 171 q 349 188 308 168 q 424 244 390 208 z "},"ô":{"ha":679,"x_min":8,"x_max":674,"o":"m 306 760 q 526 730 436 783 q 644 579 617 676 q 663 376 672 482 q 589 177 654 269 q 424 50 524 85 q 234 19 313 11 q 104 66 156 28 q 31 170 53 104 q 11 311 8 236 q 44 468 14 386 q 128 621 75 550 q 172 685 143 656 q 234 732 200 714 q 306 760 268 750 m 424 244 q 477 353 458 286 q 488 490 496 419 q 435 599 479 560 q 304 601 338 654 q 313 488 276 558 q 372 417 335 446 q 365 329 413 365 q 258 310 321 294 q 194 353 218 321 q 182 250 176 292 q 214 190 188 208 q 274 169 240 171 q 349 188 308 168 q 424 244 390 208 z "},"õ":{"ha":679,"x_min":8,"x_max":674,"o":"m 306 760 q 526 730 436 783 q 644 579 617 676 q 663 376 672 482 q 589 177 654 269 q 424 50 524 85 q 234 19 313 11 q 104 66 156 28 q 31 170 53 104 q 11 311 8 236 q 44 468 14 386 q 128 621 75 550 q 172 685 143 656 q 234 732 200 714 q 306 760 268 750 m 424 244 q 477 353 458 286 q 488 490 496 419 q 435 599 479 560 q 304 601 338 654 q 313 488 276 558 q 372 417 335 446 q 365 329 413 365 q 258 310 321 294 q 194 353 218 321 q 182 250 176 292 q 214 190 188 208 q 274 169 240 171 q 349 188 308 168 q 424 244 390 208 z "},"ö":{"ha":679,"x_min":8,"x_max":674,"o":"m 306 760 q 526 730 436 783 q 644 579 617 676 q 663 376 672 482 q 589 177 654 269 q 424 50 524 85 q 234 19 313 11 q 104 66 156 28 q 31 170 53 104 q 11 311 8 236 q 44 468 14 386 q 128 621 75 550 q 172 685 143 656 q 234 732 200 714 q 306 760 268 750 m 424 244 q 477 353 458 286 q 488 490 496 419 q 435 599 479 560 q 304 601 338 654 q 313 488 276 558 q 372 417 335 446 q 365 329 413 365 q 258 310 321 294 q 194 353 218 321 q 182 250 176 292 q 214 190 188 208 q 274 169 240 171 q 349 188 308 168 q 424 244 390 208 z "},"ø":{"ha":679,"x_min":8,"x_max":674,"o":"m 306 760 q 526 730 436 783 q 644 579 617 676 q 663 376 672 482 q 589 177 654 269 q 424 50 524 85 q 234 19 313 11 q 104 66 156 28 q 31 170 53 104 q 11 311 8 236 q 44 468 14 386 q 128 621 75 550 q 172 685 143 656 q 234 732 200 714 q 306 760 268 750 m 424 244 q 477 353 458 286 q 488 490 496 419 q 435 599 479 560 q 304 601 338 654 q 313 488 276 558 q 372 417 335 446 q 365 329 413 365 q 258 310 321 294 q 194 353 218 321 q 182 250 176 292 q 214 190 188 208 q 274 169 240 171 q 349 188 308 168 q 424 244 390 208 z "},"p":{"ha":660,"x_min":0,"x_max":658,"o":"m 268 719 q 576 671 472 801 q 644 393 658 569 q 536 114 631 221 q 249 51 419 -19 q 208 71 228 60 q 192 -115 199 26 q 156 -324 186 -257 q 111 -367 139 -354 q 56 -379 78 -379 q 22 -360 33 -379 q 5 -320 10 -342 q 1 -269 0 -299 q 6 -215 3 -239 q 15 -168 10 -190 q 79 407 75 375 q 38 423 54 414 q 15 444 21 432 q 8 467 10 456 q 15 493 7 478 q 31 519 24 508 q 53 547 38 531 q 77 572 68 563 q 101 596 86 581 q 119 704 111 656 q 158 750 124 735 q 228 757 193 765 q 268 719 263 749 m 226 246 q 383 219 308 135 q 461 422 444 288 q 431 597 478 556 q 310 567 389 635 q 256 525 285 549 q 226 246 256 513 z "},"q":{"ha":689,"x_min":7,"x_max":690,"o":"m 588 351 q 686 299 689 357 q 615 185 683 247 q 574 154 594 167 q 554 -168 565 19 q 553 -210 553 -181 q 551 -256 553 -239 q 529 -347 549 -318 q 492 -376 519 -362 q 443 -393 465 -389 q 390 -367 407 -400 q 374 -276 372 -335 q 382 -158 375 -218 q 396 -39 389 -99 q 400 44 403 21 q 94 136 203 -10 q 14 432 7 254 q 110 697 21 604 q 400 718 222 814 q 454 685 426 704 q 501 737 464 718 q 572 744 538 756 q 604 693 606 733 q 588 351 604 571 m 414 222 q 433 494 431 464 q 228 600 292 668 q 200 399 181 547 q 219 303 206 350 q 297 201 244 226 q 414 222 349 176 z "},"r":{"ha":633,"x_min":-3,"x_max":638,"o":"m 546 742 q 635 542 636 683 q 585 476 633 490 q 488 489 536 461 q 439 565 439 517 q 440 581 439 565 q 440 610 440 597 q 436 628 439 622 q 257 526 368 601 q 253 407 256 486 q 249 279 251 328 q 240 164 247 231 q 221 42 233 97 q 172 -1 210 3 q 99 19 133 -6 q 60 78 64 44 q 59 197 57 157 q 69 316 61 238 q 79 435 76 394 q 16 469 33 449 q 8 513 -1 490 q 39 556 18 535 q 92 597 60 576 q 103 731 99 679 q 122 770 106 756 q 159 785 138 785 q 202 779 181 786 q 240 755 224 772 q 257 717 256 738 q 349 762 301 746 q 449 774 396 778 q 546 742 501 771 z "},"s":{"ha":638,"x_min":8,"x_max":636,"o":"m 618 358 q 608 233 636 297 q 525 122 579 169 q 406 42 471 75 q 285 4 340 10 q 88 67 164 -10 q 25 265 11 144 q 45 307 28 292 q 85 322 63 322 q 129 315 107 322 q 167 288 151 307 q 186 247 183 269 q 242 147 176 143 q 381 225 303 150 q 431 290 415 260 q 450 342 456 335 q 331 329 418 349 q 242 313 286 314 q 161 322 199 313 q 93 351 124 332 q 42 396 63 371 q 16 452 22 421 q 18 516 10 483 q 55 583 26 549 q 132 647 83 617 q 242 704 169 671 q 401 769 314 738 q 551 794 488 800 q 618 733 615 789 q 597 672 619 701 q 497 539 526 576 q 458 516 482 521 q 414 519 435 511 q 376 543 393 528 q 357 581 360 558 q 369 624 354 603 q 301 586 342 619 q 231 518 261 553 q 190 464 200 483 q 216 460 196 458 q 252 467 236 463 q 289 476 268 471 q 318 483 310 482 q 407 492 360 494 q 496 476 454 489 q 571 433 538 464 q 618 358 604 403 z "},"t":{"ha":574,"x_min":-8,"x_max":572,"o":"m 396 286 q 450 332 406 329 q 531 303 494 335 q 560 231 568 272 q 512 132 551 182 q 420 48 472 82 q 310 3 368 14 q 203 22 251 -8 q 136 123 153 60 q 127 242 119 186 q 147 378 135 299 q 157 499 158 457 q 46 499 99 497 q -7 543 -6 500 q 29 610 -8 582 q 65 622 46 621 q 174 632 115 628 q 217 944 194 794 q 247 988 222 974 q 300 998 272 1001 q 349 975 328 994 q 369 926 371 956 q 346 642 361 814 q 481 647 361 642 q 553 615 533 649 q 551 544 572 581 q 481 507 529 508 q 333 501 358 503 q 324 355 331 475 q 306 171 317 235 q 396 286 381 219 z "},"u":{"ha":654,"x_min":13,"x_max":633,"o":"m 460 747 q 510 792 467 786 q 592 772 553 797 q 631 708 632 746 q 626 613 631 703 q 617 451 621 524 q 607 283 613 378 q 595 118 601 188 q 583 18 589 49 q 538 -22 572 -15 q 471 -10 504 -28 q 429 36 438 8 q 425 50 428 40 q 201 35 288 6 q 72 145 115 64 q 20 333 28 226 q 33 549 13 440 q 96 744 54 658 q 148 781 108 775 q 219 765 188 786 q 247 710 251 744 q 235 651 244 699 q 204 221 165 319 q 307 179 232 154 q 364 215 340 190 q 400 277 388 240 q 419 342 413 314 q 430 412 425 371 q 442 569 435 453 q 460 747 449 685 z "},"ù":{"ha":654,"x_min":13,"x_max":633,"o":"m 460 747 q 510 792 467 786 q 592 772 553 797 q 631 708 632 746 q 626 613 631 703 q 617 451 621 524 q 607 283 613 378 q 595 118 601 188 q 583 18 589 49 q 538 -22 572 -15 q 471 -10 504 -28 q 429 36 438 8 q 425 50 428 40 q 201 35 288 6 q 72 145 115 64 q 20 333 28 226 q 33 549 13 440 q 96 744 54 658 q 148 781 108 775 q 219 765 188 786 q 247 710 251 744 q 235 651 244 699 q 204 221 165 319 q 307 179 232 154 q 364 215 340 190 q 400 277 388 240 q 419 342 413 314 q 430 412 425 371 q 442 569 435 453 q 460 747 449 685 z "},"ú":{"ha":654,"x_min":13,"x_max":633,"o":"m 460 747 q 510 792 467 786 q 592 772 553 797 q 631 708 632 746 q 626 613 631 703 q 617 451 621 524 q 607 283 613 378 q 595 118 601 188 q 583 18 589 49 q 538 -22 572 -15 q 471 -10 504 -28 q 429 36 438 8 q 425 50 428 40 q 201 35 288 6 q 72 145 115 64 q 20 333 28 226 q 33 549 13 440 q 96 744 54 658 q 148 781 108 775 q 219 765 188 786 q 247 710 251 744 q 235 651 244 699 q 204 221 165 319 q 307 179 232 154 q 364 215 340 190 q 400 277 388 240 q 419 342 413 314 q 430 412 425 371 q 442 569 435 453 q 460 747 449 685 z "},"û":{"ha":654,"x_min":13,"x_max":633,"o":"m 460 747 q 510 792 467 786 q 592 772 553 797 q 631 708 632 746 q 626 613 631 703 q 617 451 621 524 q 607 283 613 378 q 595 118 601 188 q 583 18 589 49 q 538 -22 572 -15 q 471 -10 504 -28 q 429 36 438 8 q 425 50 428 40 q 201 35 288 6 q 72 145 115 64 q 20 333 28 226 q 33 549 13 440 q 96 744 54 658 q 148 781 108 775 q 219 765 188 786 q 247 710 251 744 q 235 651 244 699 q 204 221 165 319 q 307 179 232 154 q 364 215 340 190 q 400 277 388 240 q 419 342 413 314 q 430 412 425 371 q 442 569 435 453 q 460 747 449 685 z "},"ü":{"ha":654,"x_min":13,"x_max":633,"o":"m 460 747 q 510 792 467 786 q 592 772 553 797 q 631 708 632 746 q 626 613 631 703 q 617 451 621 524 q 607 283 613 378 q 595 118 601 188 q 583 18 589 49 q 538 -22 572 -15 q 471 -10 504 -28 q 429 36 438 8 q 425 50 428 40 q 201 35 288 6 q 72 145 115 64 q 20 333 28 226 q 33 549 13 440 q 96 744 54 658 q 148 781 108 775 q 219 765 188 786 q 247 710 251 744 q 235 651 244 699 q 204 221 165 319 q 307 179 232 154 q 364 215 340 190 q 400 277 388 240 q 419 342 413 314 q 430 412 425 371 q 442 569 435 453 q 460 747 449 685 z "},"v":{"ha":633,"x_min":-4,"x_max":640,"o":"m 525 765 q 597 769 561 782 q 639 713 633 757 q 500 387 622 631 q 313 32 378 143 q 255 1 293 7 q 190 14 217 -4 q 174 65 163 32 q 127 187 149 124 q 88 324 106 250 q 58 448 69 399 q 29 588 47 497 q 4 717 11 679 q 49 769 -4 765 q 139 739 99 774 q 157 715 151 728 q 201 592 181 657 q 245 440 221 528 q 281 313 269 351 q 368 508 306 361 q 476 726 431 656 q 525 765 494 754 z "},"w":{"ha":993,"x_min":6,"x_max":1001,"o":"m 954 765 q 996 703 1001 740 q 934 534 974 625 q 864 384 894 443 q 774 217 833 325 q 692 67 715 110 q 649 26 676 39 q 576 32 607 8 q 527 109 544 56 q 499 217 510 163 q 478 331 488 271 q 461 413 468 390 q 278 61 350 183 q 231 28 264 38 q 167 28 197 18 q 135 64 138 39 q 8 692 64 292 q 40 747 6 725 q 113 765 74 769 q 160 726 151 760 q 207 526 178 656 q 247 350 236 396 q 300 458 271 389 q 351 581 329 526 q 410 690 372 635 q 492 774 447 746 q 560 769 532 788 q 591 718 589 751 q 575 650 593 685 q 615 483 590 592 q 644 356 639 375 q 672 408 656 374 q 702 478 688 442 q 735 558 717 515 q 771 638 753 601 q 811 708 789 675 q 854 757 833 740 q 898 774 871 771 q 954 765 925 778 z "},"x":{"ha":758,"x_min":-17,"x_max":782,"o":"m 667 781 q 747 763 713 792 q 757 692 782 733 q 722 649 751 682 q 647 569 689 613 q 561 481 606 526 q 486 403 517 436 q 546 303 504 368 q 615 184 588 239 q 651 75 643 129 q 625 24 654 39 q 560 17 596 10 q 506 42 525 24 q 472 81 488 58 q 447 119 456 103 q 423 165 439 135 q 401 207 407 196 q 364 274 389 231 q 121 28 200 94 q 33 13 88 -1 q -11 60 -17 24 q 3 88 -8 72 q 72 172 33 126 q 140 247 111 217 q 219 327 169 276 q 290 401 268 378 q 273 434 289 406 q 253 468 257 463 q 236 499 250 474 q 217 533 222 524 q 201 565 213 543 q 183 600 189 588 q 168 632 176 613 q 153 668 160 651 q 140 703 146 685 q 175 769 121 757 q 269 750 226 781 q 285 735 279 743 q 413 531 336 663 q 488 613 439 558 q 563 692 538 667 q 620 746 583 714 q 667 781 657 778 z "},"y":{"ha":710,"x_min":-128,"x_max":715,"o":"m 613 471 q 685 458 656 483 q 710 394 714 433 q 667 336 707 356 q 606 303 639 321 q 599 196 601 263 q 597 73 597 129 q 588 -50 596 17 q 563 -167 579 -117 q 510 -259 546 -217 q 422 -322 475 -301 q 348 -328 382 -331 q 276 -308 314 -326 q 210 -267 239 -289 q 149 -216 181 -246 q 96 -162 118 -186 q 50 -113 74 -137 q 13 -78 26 -89 q 1 3 -33 -33 q 89 24 35 35 q 129 4 111 18 q 228 -83 167 -28 q 336 -167 310 -160 q 390 -114 372 -176 q 426 200 411 -42 q 119 638 -128 -214 q 144 718 131 675 q 197 769 156 754 q 269 765 238 783 q 293 703 301 746 q 265 567 288 675 q 235 391 243 460 q 232 253 228 322 q 256 271 244 263 q 281 288 268 279 q 301 302 293 297 q 323 316 308 307 q 342 328 338 325 q 365 342 347 332 q 386 354 383 353 q 412 369 389 356 q 439 383 435 382 q 463 697 450 581 q 481 737 465 722 q 519 752 497 751 q 563 746 542 753 q 599 721 583 739 q 615 681 614 703 q 613 471 617 593 z "},"ý":{"ha":710,"x_min":-128,"x_max":715,"o":"m 613 471 q 685 458 656 483 q 710 394 714 433 q 667 336 707 356 q 606 303 639 321 q 599 196 601 263 q 597 73 597 129 q 588 -50 596 17 q 563 -167 579 -117 q 510 -259 546 -217 q 422 -322 475 -301 q 348 -328 382 -331 q 276 -308 314 -326 q 210 -267 239 -289 q 149 -216 181 -246 q 96 -162 118 -186 q 50 -113 74 -137 q 13 -78 26 -89 q 1 3 -33 -33 q 89 24 35 35 q 129 4 111 18 q 228 -83 167 -28 q 336 -167 310 -160 q 390 -114 372 -176 q 426 200 411 -42 q 119 638 -128 -214 q 144 718 131 675 q 197 769 156 754 q 269 765 238 783 q 293 703 301 746 q 265 567 288 675 q 235 391 243 460 q 232 253 228 322 q 256 271 244 263 q 281 288 268 279 q 301 302 293 297 q 323 316 308 307 q 342 328 338 325 q 365 342 347 332 q 386 354 383 353 q 412 369 389 356 q 439 383 435 382 q 463 697 450 581 q 481 737 465 722 q 519 752 497 751 q 563 746 542 753 q 599 721 583 739 q 615 681 614 703 q 613 471 617 593 z "},"ÿ":{"ha":710,"x_min":-128,"x_max":715,"o":"m 613 471 q 685 458 656 483 q 710 394 714 433 q 667 336 707 356 q 606 303 639 321 q 599 196 601 263 q 597 73 597 129 q 588 -50 596 17 q 563 -167 579 -117 q 510 -259 546 -217 q 422 -322 475 -301 q 348 -328 382 -331 q 276 -308 314 -326 q 210 -267 239 -289 q 149 -216 181 -246 q 96 -162 118 -186 q 50 -113 74 -137 q 13 -78 26 -89 q 1 3 -33 -33 q 89 24 35 35 q 129 4 111 18 q 228 -83 167 -28 q 336 -167 310 -160 q 390 -114 372 -176 q 426 200 411 -42 q 119 638 -128 -214 q 144 718 131 675 q 197 769 156 754 q 269 765 238 783 q 293 703 301 746 q 265 567 288 675 q 235 391 243 460 q 232 253 228 322 q 256 271 244 263 q 281 288 268 279 q 301 302 293 297 q 323 316 308 307 q 342 328 338 325 q 365 342 347 332 q 386 354 383 353 q 412 369 389 356 q 439 383 435 382 q 463 697 450 581 q 481 737 465 722 q 519 752 497 751 q 563 746 542 753 q 599 721 583 739 q 615 681 614 703 q 613 471 617 593 z "},"z":{"ha":706,"x_min":-4,"x_max":719,"o":"m 657 742 q 710 704 703 736 q 693 642 718 672 q 631 613 668 613 q 569 530 603 574 q 513 456 536 486 q 446 373 489 425 q 386 301 403 321 q 317 219 369 281 q 254 146 265 158 q 544 144 406 150 q 594 130 574 144 q 619 94 614 115 q 620 54 624 74 q 597 22 617 35 q 544 8 576 8 q 302 7 479 13 q 61 13 125 1 q 15 33 35 17 q -4 79 -4 53 q 10 129 -4 106 q 47 171 25 153 q 421 604 354 525 q 136 615 307 604 q 85 648 94 618 q 99 707 76 678 q 156 739 121 736 q 657 742 485 758 z "},"{":{"ha":669,"x_min":60,"x_max":607,"o":"m 506 1100 q 576 1078 547 1107 q 599 1015 606 1050 q 546 971 593 979 q 482 944 510 963 q 436 894 454 925 q 406 835 418 864 q 386 764 393 806 q 376 696 379 722 q 369 631 372 669 q 352 522 369 565 q 286 453 335 478 q 335 362 322 418 q 344 249 347 306 q 342 137 342 193 q 361 32 342 81 q 429 -43 381 -17 q 492 -140 513 -92 q 410 -182 475 -181 q 247 -100 317 -186 q 163 178 169 -1 q 159 262 160 225 q 159 312 158 299 q 160 335 160 325 q 156 349 161 344 q 144 361 151 354 q 117 390 138 368 q 74 442 97 411 q 85 519 60 488 q 157 579 110 551 q 173 588 169 586 q 180 595 176 590 q 183 602 183 600 q 183 613 183 604 q 185 631 183 622 q 201 767 192 707 q 253 922 217 853 q 355 1039 290 990 q 506 1100 419 1088 z "},"|":{"ha":282,"x_min":29,"x_max":253,"o":"m 232 1075 q 250 975 249 1040 q 247 872 251 910 q 182 -135 224 371 q 142 -192 179 -171 q 68 -203 104 -214 q 31 -151 32 -193 q 55 477 29 68 q 83 1058 81 886 q 109 1095 89 1081 q 153 1113 129 1110 q 199 1107 176 1117 q 232 1075 222 1097 z "},"}":{"ha":669,"x_min":63,"x_max":604,"o":"m 514 547 q 574 491 553 518 q 599 435 596 464 q 581 378 603 407 q 513 322 560 350 q 497 313 500 315 q 490 306 493 311 q 486 300 486 301 q 486 289 486 299 q 485 271 486 279 q 463 114 481 188 q 409 -28 444 40 q 310 -142 374 -96 q 164 -199 247 -187 q 93 -177 122 -206 q 70 -113 64 -149 q 124 -68 76 -78 q 210 -24 176 -56 q 259 47 244 7 q 281 134 274 88 q 292 228 288 181 q 303 317 296 275 q 329 395 310 360 q 383 449 349 431 q 335 540 347 483 q 325 652 322 596 q 328 765 328 708 q 309 869 329 821 q 242 944 289 918 q 178 1001 188 960 q 203 1072 169 1043 q 289 1085 238 1100 q 367 1049 333 1072 q 424 999 401 1025 q 463 934 446 972 q 487 864 479 896 q 500 785 494 832 q 507 705 506 738 q 510 624 508 672 q 514 547 513 575 z "},"~":{"ha":628,"x_min":13,"x_max":617,"o":"m 465 646 q 535 697 479 690 q 607 671 589 704 q 608 631 615 654 q 485 383 572 479 q 317 339 393 283 q 219 531 254 385 q 161 396 192 467 q 83 347 142 354 q 18 374 31 342 q 19 410 13 390 q 149 671 61 579 q 314 694 240 768 q 399 493 367 639 q 465 646 438 560 z "}," ":{"ha":419,"x_min":0,"x_max":0,"o":""},"­":{"ha":0,"x_min":0,"x_max":0,"o":""},"‘":{"ha":251,"x_min":14,"x_max":235,"o":"m 169 801 q 224 767 214 797 q 212 706 235 736 q 151 675 189 675 q 33 710 63 672 q 17 773 14 735 q 39 846 19 811 q 86 910 58 881 q 147 949 114 940 q 210 942 179 957 q 229 913 225 928 q 226 883 233 899 q 210 856 219 868 q 188 827 201 843 q 169 801 175 811 z "},"’":{"ha":253,"x_min":15,"x_max":274,"o":"m 219 914 q 144 700 274 831 q 94 675 125 679 q 40 686 64 671 q 20 723 21 703 q 29 758 19 743 q 57 794 39 772 q 81 826 75 817 q 26 860 36 829 q 38 922 15 892 q 99 953 61 951 q 219 914 193 956 z "},"‚":{"ha":240,"x_min":6,"x_max":264,"o":"m 210 85 q 135 -129 264 3 q 85 -153 115 -149 q 31 -142 54 -157 q 10 -106 11 -126 q 19 -72 10 -86 q 47 -35 29 -57 q 71 -1 65 -12 q 16 33 26 1 q 28 94 6 64 q 89 125 51 124 q 210 85 183 128 z "},"“":{"ha":496,"x_min":14,"x_max":481,"o":"m 414 801 q 469 767 458 797 q 456 706 479 736 q 396 675 433 675 q 278 710 307 672 q 262 761 263 731 q 273 822 261 792 q 305 881 285 851 q 351 927 325 910 q 403 951 376 944 q 454 942 429 957 q 475 913 471 928 q 472 883 479 899 q 456 856 465 868 q 433 827 446 843 q 414 801 419 811 m 210 942 q 230 905 229 925 q 221 870 231 885 q 193 833 211 856 q 169 801 175 811 q 224 767 214 797 q 212 706 235 736 q 151 675 189 676 q 81 680 111 674 q 33 710 51 686 q 17 773 14 735 q 39 846 19 811 q 86 910 58 881 q 147 949 114 940 q 210 942 179 957 z "},"”":{"ha":497,"x_min":15,"x_max":519,"o":"m 99 953 q 231 889 213 961 q 144 700 253 813 q 94 675 125 679 q 40 686 64 671 q 20 723 21 703 q 29 758 19 743 q 57 794 39 772 q 81 826 75 817 q 26 860 36 829 q 38 922 15 892 q 99 953 61 951 m 465 914 q 389 700 518 831 q 339 675 369 679 q 286 686 308 671 q 265 723 265 703 q 275 758 265 743 q 302 794 285 772 q 326 826 319 817 q 269 875 272 831 q 304 940 267 917 q 344 953 324 951 q 465 914 438 956 z "},"„":{"ha":485,"x_min":6,"x_max":489,"o":"m 89 125 q 210 85 183 128 q 135 -129 264 3 q 85 -153 115 -149 q 31 -142 54 -157 q 10 -106 11 -126 q 19 -72 10 -86 q 47 -35 29 -57 q 71 -1 65 -12 q 16 33 26 1 q 28 94 6 64 q 89 125 51 124 m 467 61 q 379 -129 488 -17 q 329 -153 360 -149 q 276 -142 299 -157 q 256 -106 256 -126 q 265 -72 256 -86 q 292 -35 275 -57 q 317 -1 310 -12 q 262 33 272 1 q 274 94 251 64 q 335 125 297 124 q 467 61 449 133 z "}}}
